<mxfile host="app.diagrams.net" modified="2023-07-06T15:41:26.399Z" agent="Mozilla/5.0 (X11; Linux x86_64) AppleWebKit/537.36 (KHTML, like Gecko) Chrome/113.0.0.0 Safari/537.36" etag="qJ5Bqzbjp83NRhFn5nZ7" version="21.6.1" type="device">
  <diagram id="MwowoGZqm-T8tHPL4Ncn" name="Page-1">
    <mxGraphModel dx="1810" dy="1598" grid="1" gridSize="10" guides="1" tooltips="1" connect="1" arrows="1" fold="1" page="0" pageScale="1" pageWidth="827" pageHeight="1169" math="0" shadow="0">
      <root>
        <mxCell id="0" />
        <mxCell id="1" parent="0" />
        <mxCell id="5x8gw_C9wOxPfMnRKNMZ-27" value="" style="whiteSpace=wrap;html=1;fillColor=#ffe6cc;strokeColor=#d79b00;" parent="1" vertex="1">
          <mxGeometry x="1555" y="-460" width="200" height="1540" as="geometry" />
        </mxCell>
        <mxCell id="lmTZzJaFjMnNjgpMNtPa-63" value="" style="edgeStyle=orthogonalEdgeStyle;rounded=0;jumpStyle=arc;jumpSize=9;orthogonalLoop=1;jettySize=auto;html=1;exitX=1;exitY=0.5;exitDx=0;exitDy=0;entryX=0;entryY=0.5;entryDx=0;entryDy=0;" parent="1" source="lmTZzJaFjMnNjgpMNtPa-19" target="ecpVX0U7AmKR85L5Xxbu-68" edge="1">
          <mxGeometry x="0.8795" relative="1" as="geometry">
            <Array as="points">
              <mxPoint x="360" y="300" />
              <mxPoint x="360" y="870" />
              <mxPoint x="1520" y="870" />
              <mxPoint x="1520" y="461" />
            </Array>
            <mxPoint x="-1" as="offset" />
          </mxGeometry>
        </mxCell>
        <mxCell id="y7glqsLBrWSuBBTJrkj_-13" value="b_de_out" style="edgeLabel;html=1;align=center;verticalAlign=middle;resizable=0;points=[];" vertex="1" connectable="0" parent="lmTZzJaFjMnNjgpMNtPa-63">
          <mxGeometry x="-0.894" y="-3" relative="1" as="geometry">
            <mxPoint y="1" as="offset" />
          </mxGeometry>
        </mxCell>
        <mxCell id="5x8gw_C9wOxPfMnRKNMZ-32" value="" style="whiteSpace=wrap;html=1;fillColor=#ffe6cc;strokeColor=#d79b00;rotation=90;" parent="1" vertex="1">
          <mxGeometry x="996" y="-2048" width="240" height="2577" as="geometry" />
        </mxCell>
        <mxCell id="5x8gw_C9wOxPfMnRKNMZ-29" value="" style="whiteSpace=wrap;html=1;fillColor=#ffe6cc;strokeColor=#d79b00;" parent="1" vertex="1">
          <mxGeometry x="2176" y="-460" width="200" height="1540" as="geometry" />
        </mxCell>
        <mxCell id="5x8gw_C9wOxPfMnRKNMZ-25" value="" style="whiteSpace=wrap;html=1;fillColor=#ffe6cc;strokeColor=#d79b00;" parent="1" vertex="1">
          <mxGeometry x="120" y="-460" width="200" height="1540" as="geometry" />
        </mxCell>
        <mxCell id="5x8gw_C9wOxPfMnRKNMZ-24" value="" style="whiteSpace=wrap;html=1;fillColor=#ffe6cc;strokeColor=#d79b00;" parent="1" vertex="1">
          <mxGeometry x="-526" y="-460" width="200" height="1540" as="geometry" />
        </mxCell>
        <mxCell id="5x8gw_C9wOxPfMnRKNMZ-15" value="" style="shape=trapezoid;perimeter=trapezoidPerimeter;whiteSpace=wrap;html=1;fixedSize=1;points=[[0,0.99,0,0,0],[0.02,0.74,0,0,0],[0.04,0.51,0,0,0],[0.05,0.28,0,0,0],[0.07,0.07,0,0,0],[0.14,1,0,0,0],[0.25,0,0,0,0],[0.28,1,0,0,0],[0.42,1,0,0,0],[0.5,0,0,0,0],[0.56,1,0,0,0],[0.7,1,0,0,0],[0.75,0,0,0,0],[0.84,1,0,0,0],[0.93,0.07,0,0,0],[0.95,0.28,0,0,0],[0.96,0.51,0,0,0],[0.98,0.74,0,0,0],[1,0.99,0,0,0]];rotation=90;fillColor=#fff2cc;strokeColor=#d6b656;" parent="1" vertex="1">
          <mxGeometry x="1280" y="338.37" width="280" height="43.25" as="geometry" />
        </mxCell>
        <mxCell id="lmTZzJaFjMnNjgpMNtPa-25" style="edgeStyle=orthogonalEdgeStyle;rounded=0;orthogonalLoop=1;jettySize=auto;html=1;exitX=1;exitY=0.5;exitDx=0;exitDy=0;entryX=0;entryY=0.5;entryDx=0;entryDy=0;jumpStyle=arc;jumpSize=9;" parent="1" source="lmTZzJaFjMnNjgpMNtPa-18" target="lmTZzJaFjMnNjgpMNtPa-24" edge="1">
          <mxGeometry relative="1" as="geometry">
            <Array as="points">
              <mxPoint x="360" y="220" />
              <mxPoint x="360" y="-133" />
            </Array>
          </mxGeometry>
        </mxCell>
        <mxCell id="lmTZzJaFjMnNjgpMNtPa-28" style="edgeStyle=orthogonalEdgeStyle;rounded=0;orthogonalLoop=1;jettySize=auto;html=1;exitX=1;exitY=0.5;exitDx=0;exitDy=0;entryX=0.25;entryY=1;entryDx=0;entryDy=0;jumpStyle=arc;jumpSize=9;" parent="1" source="lmTZzJaFjMnNjgpMNtPa-117" target="lmTZzJaFjMnNjgpMNtPa-26" edge="1">
          <mxGeometry relative="1" as="geometry">
            <Array as="points">
              <mxPoint x="390" y="-40" />
              <mxPoint x="390" y="207" />
            </Array>
          </mxGeometry>
        </mxCell>
        <mxCell id="lmTZzJaFjMnNjgpMNtPa-54" style="edgeStyle=orthogonalEdgeStyle;rounded=0;jumpStyle=arc;jumpSize=9;orthogonalLoop=1;jettySize=auto;html=1;exitX=1;exitY=0.75;exitDx=0;exitDy=0;entryX=0.28;entryY=1;entryDx=0;entryDy=0;entryPerimeter=0;" parent="1" source="lmTZzJaFjMnNjgpMNtPa-1" target="5x8gw_C9wOxPfMnRKNMZ-15" edge="1">
          <mxGeometry relative="1" as="geometry">
            <Array as="points">
              <mxPoint x="1120" y="76" />
              <mxPoint x="1120" y="298" />
              <mxPoint x="1398" y="298" />
            </Array>
            <mxPoint x="1360" y="280" as="targetPoint" />
          </mxGeometry>
        </mxCell>
        <mxCell id="lmTZzJaFjMnNjgpMNtPa-157" value="ADD_CARRY" style="edgeStyle=orthogonalEdgeStyle;rounded=0;jumpStyle=none;jumpSize=9;orthogonalLoop=1;jettySize=auto;html=1;exitX=1;exitY=0.25;exitDx=0;exitDy=0;entryX=0;entryY=0.25;entryDx=0;entryDy=0;endArrow=classic;endFill=1;" parent="1" source="lmTZzJaFjMnNjgpMNtPa-1" target="lmTZzJaFjMnNjgpMNtPa-155" edge="1">
          <mxGeometry x="-0.25" relative="1" as="geometry">
            <mxPoint as="offset" />
          </mxGeometry>
        </mxCell>
        <mxCell id="lmTZzJaFjMnNjgpMNtPa-158" value="ADD_RESULT" style="edgeStyle=orthogonalEdgeStyle;rounded=0;jumpStyle=none;jumpSize=9;orthogonalLoop=1;jettySize=auto;html=1;exitX=1;exitY=0.75;exitDx=0;exitDy=0;entryX=0;entryY=0.75;entryDx=0;entryDy=0;endArrow=classic;endFill=1;" parent="1" source="lmTZzJaFjMnNjgpMNtPa-1" target="lmTZzJaFjMnNjgpMNtPa-155" edge="1">
          <mxGeometry x="-0.25" relative="1" as="geometry">
            <mxPoint as="offset" />
          </mxGeometry>
        </mxCell>
        <mxCell id="lmTZzJaFjMnNjgpMNtPa-1" value="P4 ADDER" style="rounded=0;whiteSpace=wrap;html=1;fillColor=#dae8fc;strokeColor=#6c8ebf;" parent="1" vertex="1">
          <mxGeometry x="750" y="16.5" width="160" height="80" as="geometry" />
        </mxCell>
        <mxCell id="lmTZzJaFjMnNjgpMNtPa-47" value="MUL_P_HIGH" style="edgeStyle=orthogonalEdgeStyle;rounded=0;jumpStyle=arc;jumpSize=9;orthogonalLoop=1;jettySize=auto;html=1;exitX=1;exitY=0.25;exitDx=0;exitDy=0;entryX=0.25;entryY=1;entryDx=0;entryDy=0;" parent="1" source="lmTZzJaFjMnNjgpMNtPa-2" target="lmTZzJaFjMnNjgpMNtPa-45" edge="1">
          <mxGeometry relative="1" as="geometry" />
        </mxCell>
        <mxCell id="lmTZzJaFjMnNjgpMNtPa-48" value="MUL_P_LOW" style="edgeStyle=orthogonalEdgeStyle;rounded=0;jumpStyle=arc;jumpSize=9;orthogonalLoop=1;jettySize=auto;html=1;exitX=1;exitY=0.75;exitDx=0;exitDy=0;entryX=0.75;entryY=1;entryDx=0;entryDy=0;" parent="1" source="lmTZzJaFjMnNjgpMNtPa-2" target="lmTZzJaFjMnNjgpMNtPa-45" edge="1">
          <mxGeometry relative="1" as="geometry" />
        </mxCell>
        <mxCell id="ecpVX0U7AmKR85L5Xxbu-50" style="edgeStyle=orthogonalEdgeStyle;rounded=0;orthogonalLoop=1;jettySize=auto;html=1;exitX=0.75;exitY=0;exitDx=0;exitDy=0;entryX=0.002;entryY=0.453;entryDx=0;entryDy=0;entryPerimeter=0;" parent="1" source="lmTZzJaFjMnNjgpMNtPa-2" target="ecpVX0U7AmKR85L5Xxbu-49" edge="1">
          <mxGeometry relative="1" as="geometry">
            <Array as="points">
              <mxPoint x="900" y="497" />
              <mxPoint x="900" y="480" />
              <mxPoint x="955" y="480" />
            </Array>
          </mxGeometry>
        </mxCell>
        <mxCell id="lmTZzJaFjMnNjgpMNtPa-2" value="BOOTH&lt;br&gt;MULTIPLIER" style="rounded=0;whiteSpace=wrap;html=1;fillColor=#dae8fc;strokeColor=#6c8ebf;" parent="1" vertex="1">
          <mxGeometry x="750" y="496.5" width="160" height="80" as="geometry" />
        </mxCell>
        <mxCell id="lmTZzJaFjMnNjgpMNtPa-49" value="DIV_QUOT" style="edgeStyle=orthogonalEdgeStyle;rounded=0;jumpStyle=arc;jumpSize=9;orthogonalLoop=1;jettySize=auto;html=1;exitX=1;exitY=0.25;exitDx=0;exitDy=0;entryX=0.25;entryY=1;entryDx=0;entryDy=0;" parent="1" source="lmTZzJaFjMnNjgpMNtPa-3" target="lmTZzJaFjMnNjgpMNtPa-46" edge="1">
          <mxGeometry relative="1" as="geometry" />
        </mxCell>
        <mxCell id="lmTZzJaFjMnNjgpMNtPa-50" value="DIV_REM" style="edgeStyle=orthogonalEdgeStyle;rounded=0;jumpStyle=arc;jumpSize=9;orthogonalLoop=1;jettySize=auto;html=1;exitX=1;exitY=0.75;exitDx=0;exitDy=0;entryX=0.75;entryY=1;entryDx=0;entryDy=0;" parent="1" source="lmTZzJaFjMnNjgpMNtPa-3" target="lmTZzJaFjMnNjgpMNtPa-46" edge="1">
          <mxGeometry relative="1" as="geometry" />
        </mxCell>
        <mxCell id="ecpVX0U7AmKR85L5Xxbu-52" style="edgeStyle=orthogonalEdgeStyle;rounded=0;orthogonalLoop=1;jettySize=auto;html=1;exitX=0.937;exitY=-0.009;exitDx=0;exitDy=0;exitPerimeter=0;" parent="1" source="lmTZzJaFjMnNjgpMNtPa-3" edge="1">
          <mxGeometry relative="1" as="geometry">
            <mxPoint x="960" y="640" as="targetPoint" />
            <Array as="points">
              <mxPoint x="900" y="640" />
            </Array>
          </mxGeometry>
        </mxCell>
        <mxCell id="lmTZzJaFjMnNjgpMNtPa-3" value="SRT RADIX-4&lt;br&gt;DIVIDER" style="rounded=0;whiteSpace=wrap;html=1;fillColor=#dae8fc;strokeColor=#6c8ebf;" parent="1" vertex="1">
          <mxGeometry x="750" y="656.5" width="160" height="80" as="geometry" />
        </mxCell>
        <mxCell id="lmTZzJaFjMnNjgpMNtPa-55" style="edgeStyle=orthogonalEdgeStyle;rounded=0;jumpStyle=arc;jumpSize=9;orthogonalLoop=1;jettySize=auto;html=1;exitX=1;exitY=0.5;exitDx=0;exitDy=0;entryX=0.42;entryY=1;entryDx=0;entryDy=0;entryPerimeter=0;" parent="1" source="lmTZzJaFjMnNjgpMNtPa-4" target="5x8gw_C9wOxPfMnRKNMZ-15" edge="1">
          <mxGeometry relative="1" as="geometry">
            <Array as="points">
              <mxPoint x="1080" y="216" />
              <mxPoint x="1080" y="338" />
              <mxPoint x="1398" y="338" />
            </Array>
            <mxPoint x="1360" y="320" as="targetPoint" />
          </mxGeometry>
        </mxCell>
        <mxCell id="y7glqsLBrWSuBBTJrkj_-19" value="LOGIC_RESULT" style="edgeLabel;html=1;align=center;verticalAlign=middle;resizable=0;points=[];" vertex="1" connectable="0" parent="lmTZzJaFjMnNjgpMNtPa-55">
          <mxGeometry x="-0.6606" y="1" relative="1" as="geometry">
            <mxPoint as="offset" />
          </mxGeometry>
        </mxCell>
        <mxCell id="lmTZzJaFjMnNjgpMNtPa-4" value="LOGIC&lt;br&gt;OPERATORS" style="rounded=0;whiteSpace=wrap;html=1;fillColor=#dae8fc;strokeColor=#6c8ebf;" parent="1" vertex="1">
          <mxGeometry x="750" y="176.5" width="160" height="80" as="geometry" />
        </mxCell>
        <mxCell id="lmTZzJaFjMnNjgpMNtPa-7" value="" style="edgeStyle=orthogonalEdgeStyle;rounded=0;orthogonalLoop=1;jettySize=auto;html=1;" parent="1" source="lmTZzJaFjMnNjgpMNtPa-5" target="lmTZzJaFjMnNjgpMNtPa-6" edge="1">
          <mxGeometry relative="1" as="geometry" />
        </mxCell>
        <mxCell id="lmTZzJaFjMnNjgpMNtPa-9" style="edgeStyle=orthogonalEdgeStyle;rounded=0;orthogonalLoop=1;jettySize=auto;html=1;exitX=1;exitY=0.5;exitDx=0;exitDy=0;entryX=0;entryY=0.5;entryDx=0;entryDy=0;" parent="1" source="lmTZzJaFjMnNjgpMNtPa-5" target="lmTZzJaFjMnNjgpMNtPa-8" edge="1">
          <mxGeometry relative="1" as="geometry">
            <Array as="points">
              <mxPoint x="-760" y="259.75" />
              <mxPoint x="-760" y="99.75" />
            </Array>
          </mxGeometry>
        </mxCell>
        <mxCell id="y7glqsLBrWSuBBTJrkj_-2" value="i_address&lt;br&gt;" style="edgeLabel;html=1;align=center;verticalAlign=middle;resizable=0;points=[];" vertex="1" connectable="0" parent="lmTZzJaFjMnNjgpMNtPa-9">
          <mxGeometry x="-0.8583" y="3" relative="1" as="geometry">
            <mxPoint x="20" as="offset" />
          </mxGeometry>
        </mxCell>
        <mxCell id="lmTZzJaFjMnNjgpMNtPa-5" value="PC" style="rounded=0;whiteSpace=wrap;html=1;fillColor=#d5e8d4;strokeColor=#82b366;" parent="1" vertex="1">
          <mxGeometry x="-880" y="239.75" width="80" height="40" as="geometry" />
        </mxCell>
        <mxCell id="lmTZzJaFjMnNjgpMNtPa-13" value="" style="edgeStyle=orthogonalEdgeStyle;rounded=0;orthogonalLoop=1;jettySize=auto;html=1;entryX=0;entryY=0.5;entryDx=0;entryDy=0;" parent="1" source="lmTZzJaFjMnNjgpMNtPa-6" target="lmTZzJaFjMnNjgpMNtPa-12" edge="1">
          <mxGeometry relative="1" as="geometry">
            <Array as="points">
              <mxPoint x="-560" y="260" />
              <mxPoint x="-560" y="997" />
            </Array>
          </mxGeometry>
        </mxCell>
        <mxCell id="y7glqsLBrWSuBBTJrkj_-3" value="mem_inst_out" style="edgeLabel;html=1;align=center;verticalAlign=middle;resizable=0;points=[];" vertex="1" connectable="0" parent="lmTZzJaFjMnNjgpMNtPa-13">
          <mxGeometry x="-0.2325" y="1" relative="1" as="geometry">
            <mxPoint y="1" as="offset" />
          </mxGeometry>
        </mxCell>
        <mxCell id="lmTZzJaFjMnNjgpMNtPa-6" value="INSTRUCTION&lt;br&gt;MEMORY" style="rounded=0;whiteSpace=wrap;html=1;fillColor=#e1d5e7;strokeColor=#9673a6;" parent="1" vertex="1">
          <mxGeometry x="-720" y="199.75" width="120" height="120" as="geometry" />
        </mxCell>
        <mxCell id="lmTZzJaFjMnNjgpMNtPa-8" value="+4" style="whiteSpace=wrap;html=1;fillColor=#dae8fc;strokeColor=#6c8ebf;" parent="1" vertex="1">
          <mxGeometry x="-680" y="79.75" width="40" height="40" as="geometry" />
        </mxCell>
        <mxCell id="lmTZzJaFjMnNjgpMNtPa-141" style="edgeStyle=orthogonalEdgeStyle;rounded=0;jumpStyle=arc;jumpSize=9;orthogonalLoop=1;jettySize=auto;html=1;endArrow=classic;endFill=1;entryX=0;entryY=0.25;entryDx=0;entryDy=0;exitX=0.1;exitY=0.5;exitDx=0;exitDy=0;exitPerimeter=0;" parent="1" source="5x8gw_C9wOxPfMnRKNMZ-51" target="lmTZzJaFjMnNjgpMNtPa-138" edge="1">
          <mxGeometry relative="1" as="geometry">
            <mxPoint x="360" y="-40" as="targetPoint" />
            <Array as="points">
              <mxPoint x="-465" y="-375" />
            </Array>
            <mxPoint x="-460" y="-100" as="sourcePoint" />
          </mxGeometry>
        </mxCell>
        <mxCell id="ecpVX0U7AmKR85L5Xxbu-67" style="edgeStyle=orthogonalEdgeStyle;rounded=0;jumpStyle=arc;jumpSize=9;orthogonalLoop=1;jettySize=auto;html=1;entryX=0.25;entryY=1;entryDx=0;entryDy=0;exitX=1;exitY=0.5;exitDx=0;exitDy=0;" parent="1" source="lmTZzJaFjMnNjgpMNtPa-8" target="ecpVX0U7AmKR85L5Xxbu-10" edge="1">
          <mxGeometry relative="1" as="geometry">
            <Array as="points">
              <mxPoint x="-560" y="100" />
              <mxPoint x="-560" y="-249" />
              <mxPoint x="1800" y="-249" />
              <mxPoint x="1800" y="-316" />
            </Array>
            <mxPoint x="-390" y="20" as="sourcePoint" />
          </mxGeometry>
        </mxCell>
        <mxCell id="lmTZzJaFjMnNjgpMNtPa-204" value="" style="edgeStyle=orthogonalEdgeStyle;rounded=0;jumpStyle=none;jumpSize=9;orthogonalLoop=1;jettySize=auto;html=1;endArrow=classic;endFill=1;" parent="1" source="lmTZzJaFjMnNjgpMNtPa-12" target="lmTZzJaFjMnNjgpMNtPa-203" edge="1">
          <mxGeometry relative="1" as="geometry" />
        </mxCell>
        <mxCell id="y7glqsLBrWSuBBTJrkj_-5" value="i" style="edgeLabel;html=1;align=center;verticalAlign=middle;resizable=0;points=[];" vertex="1" connectable="0" parent="lmTZzJaFjMnNjgpMNtPa-204">
          <mxGeometry x="-0.3642" y="-2" relative="1" as="geometry">
            <mxPoint as="offset" />
          </mxGeometry>
        </mxCell>
        <mxCell id="y7glqsLBrWSuBBTJrkj_-6" value="ir_fd_out" style="edgeLabel;html=1;align=center;verticalAlign=middle;resizable=0;points=[];" vertex="1" connectable="0" parent="lmTZzJaFjMnNjgpMNtPa-204">
          <mxGeometry x="-0.3524" y="-1" relative="1" as="geometry">
            <mxPoint as="offset" />
          </mxGeometry>
        </mxCell>
        <mxCell id="lmTZzJaFjMnNjgpMNtPa-12" value="IR_FD" style="whiteSpace=wrap;html=1;fillColor=#d5e8d4;strokeColor=#82b366;" parent="1" vertex="1">
          <mxGeometry x="-465.5" y="980" width="80" height="33" as="geometry" />
        </mxCell>
        <mxCell id="lmTZzJaFjMnNjgpMNtPa-22" value="RF_OUT2" style="edgeStyle=orthogonalEdgeStyle;rounded=0;orthogonalLoop=1;jettySize=auto;html=1;exitX=1;exitY=0.75;exitDx=0;exitDy=0;entryX=0;entryY=0.5;entryDx=0;entryDy=0;" parent="1" source="lmTZzJaFjMnNjgpMNtPa-14" target="lmTZzJaFjMnNjgpMNtPa-19" edge="1">
          <mxGeometry x="-0.2511" relative="1" as="geometry">
            <Array as="points">
              <mxPoint x="80" y="340" />
              <mxPoint x="80" y="300" />
            </Array>
            <mxPoint as="offset" />
          </mxGeometry>
        </mxCell>
        <mxCell id="lmTZzJaFjMnNjgpMNtPa-23" value="RF_OUT1" style="edgeStyle=orthogonalEdgeStyle;rounded=0;orthogonalLoop=1;jettySize=auto;html=1;exitX=1;exitY=0.25;exitDx=0;exitDy=0;entryX=0;entryY=0.5;entryDx=0;entryDy=0;" parent="1" source="lmTZzJaFjMnNjgpMNtPa-14" target="lmTZzJaFjMnNjgpMNtPa-18" edge="1">
          <mxGeometry x="-0.25" relative="1" as="geometry">
            <Array as="points">
              <mxPoint x="80" y="180" />
              <mxPoint x="80" y="220" />
            </Array>
            <mxPoint as="offset" />
          </mxGeometry>
        </mxCell>
        <mxCell id="lmTZzJaFjMnNjgpMNtPa-14" value="REGISTER&lt;br&gt;FILE" style="whiteSpace=wrap;html=1;fillColor=#dae8fc;strokeColor=#6c8ebf;" parent="1" vertex="1">
          <mxGeometry x="-80" y="100" width="120" height="320" as="geometry" />
        </mxCell>
        <mxCell id="lmTZzJaFjMnNjgpMNtPa-21" value="se_out" style="edgeStyle=orthogonalEdgeStyle;rounded=0;orthogonalLoop=1;jettySize=auto;html=1;exitX=1;exitY=0.5;exitDx=0;exitDy=0;entryX=0;entryY=0.5;entryDx=0;entryDy=0;" parent="1" source="lmTZzJaFjMnNjgpMNtPa-16" target="lmTZzJaFjMnNjgpMNtPa-20" edge="1">
          <mxGeometry x="-0.3333" relative="1" as="geometry">
            <mxPoint as="offset" />
          </mxGeometry>
        </mxCell>
        <mxCell id="lmTZzJaFjMnNjgpMNtPa-16" value="SIGN&lt;br&gt;EXTENSION" style="whiteSpace=wrap;html=1;fillColor=#dae8fc;strokeColor=#6c8ebf;" parent="1" vertex="1">
          <mxGeometry x="-80" y="481" width="120" height="60" as="geometry" />
        </mxCell>
        <mxCell id="lmTZzJaFjMnNjgpMNtPa-18" value="A_DE" style="whiteSpace=wrap;html=1;fillColor=#d5e8d4;strokeColor=#82b366;" parent="1" vertex="1">
          <mxGeometry x="160" y="200" width="120" height="40" as="geometry" />
        </mxCell>
        <mxCell id="lmTZzJaFjMnNjgpMNtPa-30" style="edgeStyle=orthogonalEdgeStyle;rounded=0;jumpStyle=arc;jumpSize=9;orthogonalLoop=1;jettySize=auto;html=1;exitX=1;exitY=0.5;exitDx=0;exitDy=0;entryX=0.25;entryY=1;entryDx=0;entryDy=0;" parent="1" source="lmTZzJaFjMnNjgpMNtPa-19" target="lmTZzJaFjMnNjgpMNtPa-29" edge="1">
          <mxGeometry relative="1" as="geometry">
            <Array as="points">
              <mxPoint x="360" y="300" />
              <mxPoint x="360" y="387" />
              <mxPoint x="420" y="387" />
            </Array>
          </mxGeometry>
        </mxCell>
        <mxCell id="lmTZzJaFjMnNjgpMNtPa-19" value="B_DE" style="whiteSpace=wrap;html=1;fillColor=#d5e8d4;strokeColor=#82b366;" parent="1" vertex="1">
          <mxGeometry x="160" y="280" width="120" height="40" as="geometry" />
        </mxCell>
        <mxCell id="lmTZzJaFjMnNjgpMNtPa-31" style="edgeStyle=orthogonalEdgeStyle;rounded=0;jumpStyle=arc;jumpSize=9;orthogonalLoop=1;jettySize=auto;html=1;exitX=1;exitY=0.5;exitDx=0;exitDy=0;entryX=0.75;entryY=1;entryDx=0;entryDy=0;" parent="1" source="lmTZzJaFjMnNjgpMNtPa-20" target="lmTZzJaFjMnNjgpMNtPa-29" edge="1">
          <mxGeometry relative="1" as="geometry">
            <Array as="points">
              <mxPoint x="340" y="511" />
              <mxPoint x="340" y="446" />
            </Array>
          </mxGeometry>
        </mxCell>
        <mxCell id="y7glqsLBrWSuBBTJrkj_-14" value="im_de_out" style="edgeLabel;html=1;align=center;verticalAlign=middle;resizable=0;points=[];" vertex="1" connectable="0" parent="lmTZzJaFjMnNjgpMNtPa-31">
          <mxGeometry x="0.6289" y="-2" relative="1" as="geometry">
            <mxPoint x="8" y="9" as="offset" />
          </mxGeometry>
        </mxCell>
        <mxCell id="lmTZzJaFjMnNjgpMNtPa-20" value="IMM_DE" style="whiteSpace=wrap;html=1;fillColor=#d5e8d4;strokeColor=#82b366;" parent="1" vertex="1">
          <mxGeometry x="160" y="491" width="120" height="40" as="geometry" />
        </mxCell>
        <mxCell id="lmTZzJaFjMnNjgpMNtPa-33" style="edgeStyle=orthogonalEdgeStyle;rounded=0;jumpStyle=arc;jumpSize=9;orthogonalLoop=1;jettySize=auto;html=1;exitX=1;exitY=0.5;exitDx=0;exitDy=0;entryX=0;entryY=0.5;entryDx=0;entryDy=0;" parent="1" source="lmTZzJaFjMnNjgpMNtPa-24" target="lmTZzJaFjMnNjgpMNtPa-32" edge="1">
          <mxGeometry relative="1" as="geometry" />
        </mxCell>
        <mxCell id="y7glqsLBrWSuBBTJrkj_-26" value="zero_detector_result" style="edgeLabel;html=1;align=center;verticalAlign=middle;resizable=0;points=[];" vertex="1" connectable="0" parent="lmTZzJaFjMnNjgpMNtPa-33">
          <mxGeometry x="-0.5826" relative="1" as="geometry">
            <mxPoint as="offset" />
          </mxGeometry>
        </mxCell>
        <mxCell id="lmTZzJaFjMnNjgpMNtPa-24" value="ZERO&lt;br&gt;DETECTOR" style="whiteSpace=wrap;html=1;fillColor=#dae8fc;strokeColor=#6c8ebf;" parent="1" vertex="1">
          <mxGeometry x="770" y="-163.5" width="120" height="60" as="geometry" />
        </mxCell>
        <mxCell id="lmTZzJaFjMnNjgpMNtPa-34" value="ADD_OP1" style="edgeStyle=orthogonalEdgeStyle;rounded=0;jumpStyle=arc;jumpSize=9;orthogonalLoop=1;jettySize=auto;html=1;exitX=0.5;exitY=0;exitDx=0;exitDy=0;entryX=0;entryY=0.25;entryDx=0;entryDy=0;strokeWidth=2;fillColor=#e51400;strokeColor=#B20000;" parent="1" source="lmTZzJaFjMnNjgpMNtPa-26" target="lmTZzJaFjMnNjgpMNtPa-1" edge="1">
          <mxGeometry x="0.7143" relative="1" as="geometry">
            <Array as="points">
              <mxPoint x="600" y="237" />
              <mxPoint x="600" y="37" />
            </Array>
            <mxPoint as="offset" />
          </mxGeometry>
        </mxCell>
        <mxCell id="lmTZzJaFjMnNjgpMNtPa-35" value="LOGIC_OP1" style="edgeStyle=orthogonalEdgeStyle;rounded=0;jumpStyle=arc;jumpSize=9;orthogonalLoop=1;jettySize=auto;html=1;exitX=0.5;exitY=0;exitDx=0;exitDy=0;entryX=0;entryY=0.25;entryDx=0;entryDy=0;strokeWidth=2;fillColor=#e51400;strokeColor=#B20000;" parent="1" source="lmTZzJaFjMnNjgpMNtPa-26" target="lmTZzJaFjMnNjgpMNtPa-4" edge="1">
          <mxGeometry x="0.6364" relative="1" as="geometry">
            <Array as="points">
              <mxPoint x="600" y="237" />
              <mxPoint x="600" y="197" />
            </Array>
            <mxPoint as="offset" />
          </mxGeometry>
        </mxCell>
        <mxCell id="lmTZzJaFjMnNjgpMNtPa-37" value="SHIFT_OP1" style="edgeStyle=orthogonalEdgeStyle;rounded=0;jumpStyle=arc;jumpSize=9;orthogonalLoop=1;jettySize=auto;html=1;exitX=0.5;exitY=0;exitDx=0;exitDy=0;entryX=0;entryY=0.25;entryDx=0;entryDy=0;strokeWidth=2;fillColor=#e51400;strokeColor=#B20000;" parent="1" source="lmTZzJaFjMnNjgpMNtPa-26" target="lmTZzJaFjMnNjgpMNtPa-36" edge="1">
          <mxGeometry x="0.6585" relative="1" as="geometry">
            <Array as="points">
              <mxPoint x="600" y="237" />
              <mxPoint x="600" y="357" />
            </Array>
            <mxPoint as="offset" />
          </mxGeometry>
        </mxCell>
        <mxCell id="lmTZzJaFjMnNjgpMNtPa-38" value="MUL_A" style="edgeStyle=orthogonalEdgeStyle;rounded=0;jumpStyle=arc;jumpSize=9;orthogonalLoop=1;jettySize=auto;html=1;exitX=0.5;exitY=0;exitDx=0;exitDy=0;entryX=0;entryY=0.25;entryDx=0;entryDy=0;strokeWidth=2;fillColor=#e51400;strokeColor=#B20000;" parent="1" source="lmTZzJaFjMnNjgpMNtPa-26" target="lmTZzJaFjMnNjgpMNtPa-2" edge="1">
          <mxGeometry x="0.7544" relative="1" as="geometry">
            <Array as="points">
              <mxPoint x="600" y="237" />
              <mxPoint x="600" y="517" />
            </Array>
            <mxPoint as="offset" />
          </mxGeometry>
        </mxCell>
        <mxCell id="lmTZzJaFjMnNjgpMNtPa-39" value="DIV_DIVIDEND" style="edgeStyle=orthogonalEdgeStyle;rounded=0;jumpStyle=arc;jumpSize=9;orthogonalLoop=1;jettySize=auto;html=1;exitX=0.5;exitY=0;exitDx=0;exitDy=0;entryX=0;entryY=0.25;entryDx=0;entryDy=0;strokeWidth=2;fillColor=#e51400;strokeColor=#B20000;" parent="1" source="lmTZzJaFjMnNjgpMNtPa-26" target="lmTZzJaFjMnNjgpMNtPa-3" edge="1">
          <mxGeometry x="0.8082" relative="1" as="geometry">
            <Array as="points">
              <mxPoint x="600" y="237" />
              <mxPoint x="600" y="677" />
            </Array>
            <mxPoint as="offset" />
          </mxGeometry>
        </mxCell>
        <mxCell id="y7glqsLBrWSuBBTJrkj_-17" value="op1_mux" style="edgeLabel;html=1;align=center;verticalAlign=middle;resizable=0;points=[];" vertex="1" connectable="0" parent="lmTZzJaFjMnNjgpMNtPa-39">
          <mxGeometry x="-0.7196" relative="1" as="geometry">
            <mxPoint as="offset" />
          </mxGeometry>
        </mxCell>
        <mxCell id="lmTZzJaFjMnNjgpMNtPa-26" value="" style="shape=trapezoid;perimeter=trapezoidPerimeter;whiteSpace=wrap;html=1;fixedSize=1;rotation=90;fillColor=#fda9a5;strokeColor=#b85450;" parent="1" vertex="1">
          <mxGeometry x="380" y="216.5" width="120" height="40" as="geometry" />
        </mxCell>
        <mxCell id="lmTZzJaFjMnNjgpMNtPa-40" value="ADD_OP2" style="edgeStyle=orthogonalEdgeStyle;rounded=0;jumpStyle=arc;jumpSize=9;orthogonalLoop=1;jettySize=auto;html=1;exitX=0.5;exitY=0;exitDx=0;exitDy=0;entryX=0;entryY=0.75;entryDx=0;entryDy=0;strokeWidth=2;fillColor=#0050ef;strokeColor=#001DBC;" parent="1" source="lmTZzJaFjMnNjgpMNtPa-29" target="lmTZzJaFjMnNjgpMNtPa-1" edge="1">
          <mxGeometry x="0.7778" relative="1" as="geometry">
            <Array as="points">
              <mxPoint x="520" y="417" />
              <mxPoint x="520" y="77" />
            </Array>
            <mxPoint as="offset" />
          </mxGeometry>
        </mxCell>
        <mxCell id="lmTZzJaFjMnNjgpMNtPa-41" value="LOGIC_OP2" style="edgeStyle=orthogonalEdgeStyle;rounded=0;jumpStyle=arc;jumpSize=9;orthogonalLoop=1;jettySize=auto;html=1;exitX=0.5;exitY=0;exitDx=0;exitDy=0;entryX=0;entryY=0.75;entryDx=0;entryDy=0;strokeWidth=2;fillColor=#0050ef;strokeColor=#001DBC;" parent="1" source="lmTZzJaFjMnNjgpMNtPa-29" target="lmTZzJaFjMnNjgpMNtPa-4" edge="1">
          <mxGeometry x="0.7447" relative="1" as="geometry">
            <Array as="points">
              <mxPoint x="520" y="417" />
              <mxPoint x="520" y="290" />
              <mxPoint x="640" y="290" />
              <mxPoint x="640" y="237" />
            </Array>
            <mxPoint as="offset" />
          </mxGeometry>
        </mxCell>
        <mxCell id="lmTZzJaFjMnNjgpMNtPa-42" value="SHIFT_SA" style="edgeStyle=orthogonalEdgeStyle;rounded=0;jumpStyle=arc;jumpSize=9;orthogonalLoop=1;jettySize=auto;html=1;exitX=0.5;exitY=0;exitDx=0;exitDy=0;entryX=0;entryY=0.75;entryDx=0;entryDy=0;strokeWidth=2;fillColor=#0050ef;strokeColor=#001DBC;" parent="1" source="lmTZzJaFjMnNjgpMNtPa-29" target="lmTZzJaFjMnNjgpMNtPa-36" edge="1">
          <mxGeometry x="0.5484" relative="1" as="geometry">
            <Array as="points">
              <mxPoint x="520" y="417" />
              <mxPoint x="520" y="397" />
            </Array>
            <mxPoint as="offset" />
          </mxGeometry>
        </mxCell>
        <mxCell id="lmTZzJaFjMnNjgpMNtPa-43" value="MUL_B" style="edgeStyle=orthogonalEdgeStyle;rounded=0;jumpStyle=arc;jumpSize=9;orthogonalLoop=1;jettySize=auto;html=1;exitX=0.5;exitY=0;exitDx=0;exitDy=0;entryX=0;entryY=0.75;entryDx=0;entryDy=0;strokeWidth=2;fillColor=#0050ef;strokeColor=#001DBC;" parent="1" source="lmTZzJaFjMnNjgpMNtPa-29" target="lmTZzJaFjMnNjgpMNtPa-2" edge="1">
          <mxGeometry x="0.6744" relative="1" as="geometry">
            <Array as="points">
              <mxPoint x="520" y="417" />
              <mxPoint x="520" y="557" />
            </Array>
            <mxPoint as="offset" />
          </mxGeometry>
        </mxCell>
        <mxCell id="lmTZzJaFjMnNjgpMNtPa-44" value="DIV_DIVISOR" style="edgeStyle=orthogonalEdgeStyle;rounded=0;jumpStyle=arc;jumpSize=9;orthogonalLoop=1;jettySize=auto;html=1;exitX=0.5;exitY=0;exitDx=0;exitDy=0;entryX=0;entryY=0.75;entryDx=0;entryDy=0;strokeWidth=2;fillColor=#0050ef;strokeColor=#001DBC;" parent="1" source="lmTZzJaFjMnNjgpMNtPa-29" target="lmTZzJaFjMnNjgpMNtPa-3" edge="1">
          <mxGeometry x="0.7627" relative="1" as="geometry">
            <Array as="points">
              <mxPoint x="520" y="417" />
              <mxPoint x="520" y="717" />
            </Array>
            <mxPoint as="offset" />
          </mxGeometry>
        </mxCell>
        <mxCell id="y7glqsLBrWSuBBTJrkj_-18" value="op2_mux" style="edgeLabel;html=1;align=center;verticalAlign=middle;resizable=0;points=[];" vertex="1" connectable="0" parent="lmTZzJaFjMnNjgpMNtPa-44">
          <mxGeometry x="-0.9027" y="1" relative="1" as="geometry">
            <mxPoint as="offset" />
          </mxGeometry>
        </mxCell>
        <mxCell id="lmTZzJaFjMnNjgpMNtPa-29" value="" style="shape=trapezoid;perimeter=trapezoidPerimeter;whiteSpace=wrap;html=1;fixedSize=1;rotation=90;fillColor=#8fbeff;strokeColor=#6c8ebf;" parent="1" vertex="1">
          <mxGeometry x="380" y="396.5" width="120" height="40" as="geometry" />
        </mxCell>
        <mxCell id="lmTZzJaFjMnNjgpMNtPa-72" style="edgeStyle=orthogonalEdgeStyle;rounded=0;jumpStyle=arc;jumpSize=9;orthogonalLoop=1;jettySize=auto;html=1;entryX=0;entryY=0.25;entryDx=0;entryDy=0;entryPerimeter=0;endArrow=none;endFill=0;exitX=1;exitY=0.5;exitDx=0;exitDy=0;" parent="1" source="lmTZzJaFjMnNjgpMNtPa-32" target="ecpVX0U7AmKR85L5Xxbu-15" edge="1">
          <mxGeometry relative="1" as="geometry">
            <Array as="points">
              <mxPoint x="1963" y="-133" />
            </Array>
            <mxPoint x="2465.63" y="15.63000000000011" as="targetPoint" />
          </mxGeometry>
        </mxCell>
        <mxCell id="y7glqsLBrWSuBBTJrkj_-28" value="cond_out" style="edgeLabel;html=1;align=center;verticalAlign=middle;resizable=0;points=[];" vertex="1" connectable="0" parent="lmTZzJaFjMnNjgpMNtPa-72">
          <mxGeometry x="0.2239" y="2" relative="1" as="geometry">
            <mxPoint as="offset" />
          </mxGeometry>
        </mxCell>
        <mxCell id="lmTZzJaFjMnNjgpMNtPa-32" value="COND" style="whiteSpace=wrap;html=1;fillColor=#d5e8d4;strokeColor=#82b366;" parent="1" vertex="1">
          <mxGeometry x="1600" y="-153" width="120" height="40" as="geometry" />
        </mxCell>
        <mxCell id="lmTZzJaFjMnNjgpMNtPa-56" style="edgeStyle=orthogonalEdgeStyle;rounded=0;jumpStyle=arc;jumpSize=9;orthogonalLoop=1;jettySize=auto;html=1;exitX=1;exitY=0.5;exitDx=0;exitDy=0;entryX=0.56;entryY=1;entryDx=0;entryDy=0;entryPerimeter=0;" parent="1" source="lmTZzJaFjMnNjgpMNtPa-36" target="5x8gw_C9wOxPfMnRKNMZ-15" edge="1">
          <mxGeometry relative="1" as="geometry">
            <mxPoint x="1360" y="361" as="targetPoint" />
            <Array as="points">
              <mxPoint x="1120" y="376" />
              <mxPoint x="1398" y="377" />
            </Array>
          </mxGeometry>
        </mxCell>
        <mxCell id="y7glqsLBrWSuBBTJrkj_-20" value="SHIFT_RESULT" style="edgeLabel;html=1;align=center;verticalAlign=middle;resizable=0;points=[];" vertex="1" connectable="0" parent="lmTZzJaFjMnNjgpMNtPa-56">
          <mxGeometry x="-0.6417" y="1" relative="1" as="geometry">
            <mxPoint as="offset" />
          </mxGeometry>
        </mxCell>
        <mxCell id="lmTZzJaFjMnNjgpMNtPa-36" value="SHIFTER" style="rounded=0;whiteSpace=wrap;html=1;fillColor=#dae8fc;strokeColor=#6c8ebf;" parent="1" vertex="1">
          <mxGeometry x="750" y="336.5" width="160" height="80" as="geometry" />
        </mxCell>
        <mxCell id="lmTZzJaFjMnNjgpMNtPa-57" style="edgeStyle=orthogonalEdgeStyle;rounded=0;jumpStyle=arc;jumpSize=9;orthogonalLoop=1;jettySize=auto;html=1;exitX=0.5;exitY=0;exitDx=0;exitDy=0;entryX=0.7;entryY=1;entryDx=0;entryDy=0;entryPerimeter=0;" parent="1" source="lmTZzJaFjMnNjgpMNtPa-45" target="5x8gw_C9wOxPfMnRKNMZ-15" edge="1">
          <mxGeometry relative="1" as="geometry">
            <mxPoint x="1360" y="400" as="targetPoint" />
            <Array as="points">
              <mxPoint x="1160" y="536" />
              <mxPoint x="1160" y="416" />
            </Array>
          </mxGeometry>
        </mxCell>
        <mxCell id="y7glqsLBrWSuBBTJrkj_-22" value="MUL_MUX" style="edgeLabel;html=1;align=center;verticalAlign=middle;resizable=0;points=[];" vertex="1" connectable="0" parent="lmTZzJaFjMnNjgpMNtPa-57">
          <mxGeometry x="0.0335" y="-3" relative="1" as="geometry">
            <mxPoint as="offset" />
          </mxGeometry>
        </mxCell>
        <mxCell id="lmTZzJaFjMnNjgpMNtPa-45" value="" style="shape=trapezoid;perimeter=trapezoidPerimeter;whiteSpace=wrap;html=1;fixedSize=1;rotation=90;size=16.75;fillColor=#fff2cc;strokeColor=#d6b656;" parent="1" vertex="1">
          <mxGeometry x="1065" y="523.25" width="80" height="26.5" as="geometry" />
        </mxCell>
        <mxCell id="lmTZzJaFjMnNjgpMNtPa-58" style="edgeStyle=orthogonalEdgeStyle;rounded=0;jumpStyle=arc;jumpSize=9;orthogonalLoop=1;jettySize=auto;html=1;exitX=0.5;exitY=0;exitDx=0;exitDy=0;entryX=0.84;entryY=1;entryDx=0;entryDy=0;entryPerimeter=0;" parent="1" source="lmTZzJaFjMnNjgpMNtPa-46" target="5x8gw_C9wOxPfMnRKNMZ-15" edge="1">
          <mxGeometry relative="1" as="geometry">
            <Array as="points">
              <mxPoint x="1200" y="696" />
              <mxPoint x="1200" y="455" />
            </Array>
            <mxPoint x="1360" y="420" as="targetPoint" />
          </mxGeometry>
        </mxCell>
        <mxCell id="y7glqsLBrWSuBBTJrkj_-23" value="DIV_MUX" style="edgeLabel;html=1;align=center;verticalAlign=middle;resizable=0;points=[];" vertex="1" connectable="0" parent="lmTZzJaFjMnNjgpMNtPa-58">
          <mxGeometry x="0.4736" y="3" relative="1" as="geometry">
            <mxPoint as="offset" />
          </mxGeometry>
        </mxCell>
        <mxCell id="lmTZzJaFjMnNjgpMNtPa-46" value="" style="shape=trapezoid;perimeter=trapezoidPerimeter;whiteSpace=wrap;html=1;fixedSize=1;rotation=90;fillColor=#fff2cc;strokeColor=#d6b656;" parent="1" vertex="1">
          <mxGeometry x="1065" y="683.25" width="80" height="26.5" as="geometry" />
        </mxCell>
        <mxCell id="lmTZzJaFjMnNjgpMNtPa-60" value="" style="edgeStyle=orthogonalEdgeStyle;rounded=0;jumpStyle=arc;jumpSize=9;orthogonalLoop=1;jettySize=auto;html=1;exitX=0.5;exitY=0;exitDx=0;exitDy=0;exitPerimeter=0;" parent="1" source="5x8gw_C9wOxPfMnRKNMZ-15" target="lmTZzJaFjMnNjgpMNtPa-59" edge="1">
          <mxGeometry relative="1" as="geometry">
            <mxPoint x="1435" y="360.75701754385955" as="sourcePoint" />
          </mxGeometry>
        </mxCell>
        <mxCell id="y7glqsLBrWSuBBTJrkj_-25" value="EXEOUT_MUX" style="edgeLabel;html=1;align=center;verticalAlign=middle;resizable=0;points=[];" vertex="1" connectable="0" parent="lmTZzJaFjMnNjgpMNtPa-60">
          <mxGeometry x="-0.0076" y="-4" relative="1" as="geometry">
            <mxPoint x="-10" y="-4" as="offset" />
          </mxGeometry>
        </mxCell>
        <mxCell id="lmTZzJaFjMnNjgpMNtPa-62" value="ADDRESS" style="edgeStyle=orthogonalEdgeStyle;rounded=0;jumpStyle=arc;jumpSize=9;orthogonalLoop=1;jettySize=auto;html=1;exitX=1;exitY=0.5;exitDx=0;exitDy=0;" parent="1" source="lmTZzJaFjMnNjgpMNtPa-59" edge="1">
          <mxGeometry x="0.2381" relative="1" as="geometry">
            <mxPoint x="-1" as="offset" />
            <mxPoint x="2000" y="360" as="targetPoint" />
          </mxGeometry>
        </mxCell>
        <mxCell id="lmTZzJaFjMnNjgpMNtPa-73" style="edgeStyle=orthogonalEdgeStyle;rounded=0;jumpStyle=arc;jumpSize=9;orthogonalLoop=1;jettySize=auto;html=1;exitX=1;exitY=0.5;exitDx=0;exitDy=0;entryX=0.75;entryY=1;entryDx=0;entryDy=0;" parent="1" source="lmTZzJaFjMnNjgpMNtPa-59" target="ecpVX0U7AmKR85L5Xxbu-10" edge="1">
          <mxGeometry relative="1" as="geometry">
            <Array as="points">
              <mxPoint x="1840" y="360" />
              <mxPoint x="1840" y="-256" />
            </Array>
            <mxPoint x="2270" y="-190" as="targetPoint" />
          </mxGeometry>
        </mxCell>
        <mxCell id="ecpVX0U7AmKR85L5Xxbu-72" style="edgeStyle=orthogonalEdgeStyle;rounded=0;jumpStyle=arc;jumpSize=9;orthogonalLoop=1;jettySize=auto;html=1;exitX=1;exitY=0.5;exitDx=0;exitDy=0;entryX=0;entryY=0.5;entryDx=0;entryDy=0;" parent="1" source="lmTZzJaFjMnNjgpMNtPa-59" target="ecpVX0U7AmKR85L5Xxbu-71" edge="1">
          <mxGeometry relative="1" as="geometry">
            <Array as="points">
              <mxPoint x="1840" y="360" />
              <mxPoint x="1840" y="300" />
            </Array>
          </mxGeometry>
        </mxCell>
        <mxCell id="y7glqsLBrWSuBBTJrkj_-30" value="exeout_em_out" style="edgeLabel;html=1;align=center;verticalAlign=middle;resizable=0;points=[];" vertex="1" connectable="0" parent="ecpVX0U7AmKR85L5Xxbu-72">
          <mxGeometry x="-0.7265" y="-5" relative="1" as="geometry">
            <mxPoint y="7" as="offset" />
          </mxGeometry>
        </mxCell>
        <mxCell id="lmTZzJaFjMnNjgpMNtPa-59" value="EXEOUT_EM" style="whiteSpace=wrap;html=1;fillColor=#d5e8d4;strokeColor=#82b366;" parent="1" vertex="1">
          <mxGeometry x="1600" y="340" width="120" height="40" as="geometry" />
        </mxCell>
        <mxCell id="lmTZzJaFjMnNjgpMNtPa-66" style="edgeStyle=orthogonalEdgeStyle;rounded=0;jumpStyle=arc;jumpSize=9;orthogonalLoop=1;jettySize=auto;html=1;exitX=1;exitY=0.5;exitDx=0;exitDy=0;" parent="1" source="lmTZzJaFjMnNjgpMNtPa-61" target="lmTZzJaFjMnNjgpMNtPa-65" edge="1">
          <mxGeometry relative="1" as="geometry" />
        </mxCell>
        <mxCell id="y7glqsLBrWSuBBTJrkj_-34" value="mem_data_out" style="edgeLabel;html=1;align=center;verticalAlign=middle;resizable=0;points=[];" vertex="1" connectable="0" parent="lmTZzJaFjMnNjgpMNtPa-66">
          <mxGeometry x="-0.3536" y="1" relative="1" as="geometry">
            <mxPoint x="9" y="11" as="offset" />
          </mxGeometry>
        </mxCell>
        <mxCell id="lmTZzJaFjMnNjgpMNtPa-61" value="DATA&lt;br&gt;MEMORY" style="rounded=0;whiteSpace=wrap;html=1;fillColor=#e1d5e7;strokeColor=#9673a6;" parent="1" vertex="1">
          <mxGeometry x="2000" y="326.5" width="120" height="120" as="geometry" />
        </mxCell>
        <mxCell id="lmTZzJaFjMnNjgpMNtPa-68" style="edgeStyle=orthogonalEdgeStyle;rounded=0;jumpStyle=arc;jumpSize=9;orthogonalLoop=1;jettySize=auto;html=1;exitX=1;exitY=0.5;exitDx=0;exitDy=0;entryX=0.75;entryY=1;entryDx=0;entryDy=0;" parent="1" source="lmTZzJaFjMnNjgpMNtPa-65" target="lmTZzJaFjMnNjgpMNtPa-67" edge="1">
          <mxGeometry relative="1" as="geometry">
            <Array as="points">
              <mxPoint x="2380" y="386" />
              <mxPoint x="2480" y="387" />
            </Array>
          </mxGeometry>
        </mxCell>
        <mxCell id="y7glqsLBrWSuBBTJrkj_-37" value="lmd_mw_out" style="edgeLabel;html=1;align=center;verticalAlign=middle;resizable=0;points=[];" vertex="1" connectable="0" parent="lmTZzJaFjMnNjgpMNtPa-68">
          <mxGeometry x="0.0598" y="3" relative="1" as="geometry">
            <mxPoint as="offset" />
          </mxGeometry>
        </mxCell>
        <mxCell id="lmTZzJaFjMnNjgpMNtPa-65" value="LMD_MW" style="whiteSpace=wrap;html=1;fillColor=#d5e8d4;strokeColor=#82b366;" parent="1" vertex="1">
          <mxGeometry x="2216" y="366.5" width="120" height="40" as="geometry" />
        </mxCell>
        <mxCell id="lmTZzJaFjMnNjgpMNtPa-70" value="WRITE DATA" style="edgeStyle=orthogonalEdgeStyle;rounded=0;jumpStyle=arc;jumpSize=9;orthogonalLoop=1;jettySize=auto;html=1;exitX=0.5;exitY=0;exitDx=0;exitDy=0;" parent="1" source="lmTZzJaFjMnNjgpMNtPa-67" edge="1">
          <mxGeometry x="0.9632" relative="1" as="geometry">
            <Array as="points">
              <mxPoint x="2630" y="349" />
              <mxPoint x="2630" y="920" />
              <mxPoint x="-240" y="920" />
              <mxPoint x="-240" y="370" />
            </Array>
            <mxPoint as="offset" />
            <mxPoint x="-80" y="370" as="targetPoint" />
          </mxGeometry>
        </mxCell>
        <mxCell id="y7glqsLBrWSuBBTJrkj_-10" value="rf_data_in" style="edgeLabel;html=1;align=center;verticalAlign=middle;resizable=0;points=[];" vertex="1" connectable="0" parent="lmTZzJaFjMnNjgpMNtPa-70">
          <mxGeometry x="-0.8758" y="2" relative="1" as="geometry">
            <mxPoint y="1" as="offset" />
          </mxGeometry>
        </mxCell>
        <mxCell id="lmTZzJaFjMnNjgpMNtPa-67" value="" style="shape=trapezoid;perimeter=trapezoidPerimeter;whiteSpace=wrap;html=1;fixedSize=1;rotation=90;fillColor=#fff2cc;strokeColor=#d6b656;" parent="1" vertex="1">
          <mxGeometry x="2424.69" y="329.06" width="151.25" height="40.62" as="geometry" />
        </mxCell>
        <mxCell id="lmTZzJaFjMnNjgpMNtPa-75" style="edgeStyle=orthogonalEdgeStyle;rounded=0;jumpStyle=arc;jumpSize=9;orthogonalLoop=1;jettySize=auto;html=1;exitX=0.5;exitY=0;exitDx=0;exitDy=0;entryX=0;entryY=0.5;entryDx=0;entryDy=0;" parent="1" source="lmTZzJaFjMnNjgpMNtPa-71" target="lmTZzJaFjMnNjgpMNtPa-5" edge="1">
          <mxGeometry relative="1" as="geometry">
            <Array as="points">
              <mxPoint x="2160" y="-326" />
              <mxPoint x="2160" y="-500" />
              <mxPoint x="-920" y="-500" />
              <mxPoint x="-920" y="260" />
            </Array>
          </mxGeometry>
        </mxCell>
        <mxCell id="y7glqsLBrWSuBBTJrkj_-1" value="next_pc&lt;br&gt;" style="edgeLabel;html=1;align=center;verticalAlign=middle;resizable=0;points=[];" vertex="1" connectable="0" parent="lmTZzJaFjMnNjgpMNtPa-75">
          <mxGeometry x="-0.1984" y="2" relative="1" as="geometry">
            <mxPoint as="offset" />
          </mxGeometry>
        </mxCell>
        <mxCell id="lmTZzJaFjMnNjgpMNtPa-71" value="" style="shape=trapezoid;perimeter=trapezoidPerimeter;whiteSpace=wrap;html=1;fixedSize=1;rotation=90;fillColor=#fff2cc;strokeColor=#d6b656;" parent="1" vertex="1">
          <mxGeometry x="2035.5" y="-343.5" width="120" height="35.5" as="geometry" />
        </mxCell>
        <mxCell id="lmTZzJaFjMnNjgpMNtPa-77" value="" style="edgeStyle=orthogonalEdgeStyle;rounded=0;jumpStyle=arc;jumpSize=9;orthogonalLoop=1;jettySize=auto;html=1;" parent="1" source="lmTZzJaFjMnNjgpMNtPa-76" target="lmTZzJaFjMnNjgpMNtPa-26" edge="1">
          <mxGeometry relative="1" as="geometry" />
        </mxCell>
        <mxCell id="lmTZzJaFjMnNjgpMNtPa-76" value="EX_SEL_A" style="text;html=1;align=center;verticalAlign=middle;resizable=0;points=[];autosize=1;strokeColor=none;fillColor=none;" parent="1" vertex="1">
          <mxGeometry x="400" y="316.5" width="80" height="30" as="geometry" />
        </mxCell>
        <mxCell id="lmTZzJaFjMnNjgpMNtPa-79" value="" style="edgeStyle=orthogonalEdgeStyle;rounded=0;jumpStyle=arc;jumpSize=9;orthogonalLoop=1;jettySize=auto;html=1;" parent="1" source="lmTZzJaFjMnNjgpMNtPa-78" target="lmTZzJaFjMnNjgpMNtPa-29" edge="1">
          <mxGeometry relative="1" as="geometry" />
        </mxCell>
        <mxCell id="lmTZzJaFjMnNjgpMNtPa-78" value="EX_SEL_B" style="text;html=1;align=center;verticalAlign=middle;resizable=0;points=[];autosize=1;strokeColor=none;fillColor=none;" parent="1" vertex="1">
          <mxGeometry x="400" y="507.5" width="80" height="30" as="geometry" />
        </mxCell>
        <mxCell id="lmTZzJaFjMnNjgpMNtPa-81" value="" style="edgeStyle=orthogonalEdgeStyle;rounded=0;jumpStyle=arc;jumpSize=9;orthogonalLoop=1;jettySize=auto;html=1;entryX=0.5;entryY=0;entryDx=0;entryDy=0;" parent="1" source="lmTZzJaFjMnNjgpMNtPa-80" target="lmTZzJaFjMnNjgpMNtPa-24" edge="1">
          <mxGeometry relative="1" as="geometry" />
        </mxCell>
        <mxCell id="lmTZzJaFjMnNjgpMNtPa-80" value="BRANCH_EQ_NEQ_BAR" style="text;html=1;align=center;verticalAlign=middle;resizable=0;points=[];autosize=1;strokeColor=none;fillColor=none;" parent="1" vertex="1">
          <mxGeometry x="750" y="-230.5" width="160" height="30" as="geometry" />
        </mxCell>
        <mxCell id="lmTZzJaFjMnNjgpMNtPa-82" value="0" style="text;html=1;align=center;verticalAlign=middle;resizable=0;points=[];autosize=1;strokeColor=none;fillColor=none;" parent="1" vertex="1">
          <mxGeometry x="2077.75" y="-310.37" width="30" height="30" as="geometry" />
        </mxCell>
        <mxCell id="lmTZzJaFjMnNjgpMNtPa-83" value="1" style="text;html=1;align=center;verticalAlign=middle;resizable=0;points=[];autosize=1;strokeColor=none;fillColor=none;" parent="1" vertex="1">
          <mxGeometry x="2077.75" y="-370" width="30" height="30" as="geometry" />
        </mxCell>
        <mxCell id="lmTZzJaFjMnNjgpMNtPa-93" style="edgeStyle=orthogonalEdgeStyle;rounded=0;jumpStyle=arc;jumpSize=9;orthogonalLoop=1;jettySize=auto;html=1;entryX=0;entryY=0.75;entryDx=0;entryDy=0;entryPerimeter=0;endArrow=none;endFill=0;" parent="1" edge="1">
          <mxGeometry relative="1" as="geometry">
            <mxPoint x="1983.13" y="-166.9999999999999" as="targetPoint" />
            <mxPoint x="1983" y="-100" as="sourcePoint" />
            <Array as="points">
              <mxPoint x="1983" y="-120" />
            </Array>
          </mxGeometry>
        </mxCell>
        <mxCell id="lmTZzJaFjMnNjgpMNtPa-92" value="MEM_BRANCH_ENABLE" style="text;html=1;align=center;verticalAlign=middle;resizable=0;points=[];autosize=1;strokeColor=none;fillColor=none;" parent="1" vertex="1">
          <mxGeometry x="1904.5" y="-100" width="160" height="30" as="geometry" />
        </mxCell>
        <mxCell id="lmTZzJaFjMnNjgpMNtPa-96" style="edgeStyle=orthogonalEdgeStyle;rounded=0;jumpStyle=arc;jumpSize=9;orthogonalLoop=1;jettySize=auto;html=1;exitX=0.492;exitY=-0.016;exitDx=0;exitDy=0;exitPerimeter=0;entryX=1;entryY=0.5;entryDx=0;entryDy=0;" parent="1" source="lmTZzJaFjMnNjgpMNtPa-97" target="lmTZzJaFjMnNjgpMNtPa-71" edge="1">
          <mxGeometry relative="1" as="geometry">
            <mxPoint x="2099" y="-247" as="sourcePoint" />
          </mxGeometry>
        </mxCell>
        <mxCell id="lmTZzJaFjMnNjgpMNtPa-97" value="MEM_PERFORM_JUMP" style="text;html=1;align=center;verticalAlign=middle;resizable=0;points=[];autosize=1;strokeColor=none;fillColor=none;" parent="1" vertex="1">
          <mxGeometry x="2016.5" y="-202" width="160" height="30" as="geometry" />
        </mxCell>
        <mxCell id="lmTZzJaFjMnNjgpMNtPa-110" style="edgeStyle=orthogonalEdgeStyle;rounded=0;jumpStyle=arc;jumpSize=9;orthogonalLoop=1;jettySize=auto;html=1;exitX=1;exitY=0.5;exitDx=0;exitDy=0;entryX=0;entryY=0.5;entryDx=0;entryDy=0;endArrow=classic;endFill=1;" parent="1" source="lmTZzJaFjMnNjgpMNtPa-106" target="lmTZzJaFjMnNjgpMNtPa-107" edge="1">
          <mxGeometry relative="1" as="geometry" />
        </mxCell>
        <mxCell id="y7glqsLBrWSuBBTJrkj_-38" value="cw_de_out" style="edgeLabel;html=1;align=center;verticalAlign=middle;resizable=0;points=[];" vertex="1" connectable="0" parent="lmTZzJaFjMnNjgpMNtPa-110">
          <mxGeometry x="-0.5722" relative="1" as="geometry">
            <mxPoint as="offset" />
          </mxGeometry>
        </mxCell>
        <mxCell id="lmTZzJaFjMnNjgpMNtPa-106" value="CW_DE" style="whiteSpace=wrap;html=1;fillColor=#d5e8d4;strokeColor=#82b366;" parent="1" vertex="1">
          <mxGeometry x="161" y="-743" width="120" height="67" as="geometry" />
        </mxCell>
        <mxCell id="lmTZzJaFjMnNjgpMNtPa-111" style="edgeStyle=orthogonalEdgeStyle;rounded=0;jumpStyle=arc;jumpSize=9;orthogonalLoop=1;jettySize=auto;html=1;exitX=1;exitY=0.5;exitDx=0;exitDy=0;entryX=0;entryY=0.5;entryDx=0;entryDy=0;endArrow=classic;endFill=1;" parent="1" source="lmTZzJaFjMnNjgpMNtPa-107" target="lmTZzJaFjMnNjgpMNtPa-108" edge="1">
          <mxGeometry relative="1" as="geometry" />
        </mxCell>
        <mxCell id="y7glqsLBrWSuBBTJrkj_-39" value="cw_em_out" style="edgeLabel;html=1;align=center;verticalAlign=middle;resizable=0;points=[];" vertex="1" connectable="0" parent="lmTZzJaFjMnNjgpMNtPa-111">
          <mxGeometry x="-0.3853" y="-3" relative="1" as="geometry">
            <mxPoint as="offset" />
          </mxGeometry>
        </mxCell>
        <mxCell id="lmTZzJaFjMnNjgpMNtPa-107" value="CW_EM" style="whiteSpace=wrap;html=1;fillColor=#d5e8d4;strokeColor=#82b366;" parent="1" vertex="1">
          <mxGeometry x="1601" y="-743" width="120" height="67" as="geometry" />
        </mxCell>
        <mxCell id="y7glqsLBrWSuBBTJrkj_-40" style="edgeStyle=orthogonalEdgeStyle;rounded=0;orthogonalLoop=1;jettySize=auto;html=1;exitX=1;exitY=0.5;exitDx=0;exitDy=0;" edge="1" parent="1" source="lmTZzJaFjMnNjgpMNtPa-108">
          <mxGeometry relative="1" as="geometry">
            <mxPoint x="2470" y="-709.5384615384615" as="targetPoint" />
          </mxGeometry>
        </mxCell>
        <mxCell id="y7glqsLBrWSuBBTJrkj_-41" value="cw_mw_out" style="edgeLabel;html=1;align=center;verticalAlign=middle;resizable=0;points=[];" vertex="1" connectable="0" parent="y7glqsLBrWSuBBTJrkj_-40">
          <mxGeometry x="0.2077" y="-1" relative="1" as="geometry">
            <mxPoint as="offset" />
          </mxGeometry>
        </mxCell>
        <mxCell id="lmTZzJaFjMnNjgpMNtPa-108" value="CW_MW" style="whiteSpace=wrap;html=1;fillColor=#d5e8d4;strokeColor=#82b366;" parent="1" vertex="1">
          <mxGeometry x="2221" y="-743" width="120" height="67" as="geometry" />
        </mxCell>
        <mxCell id="lmTZzJaFjMnNjgpMNtPa-113" style="edgeStyle=orthogonalEdgeStyle;rounded=0;jumpStyle=arc;jumpSize=9;orthogonalLoop=1;jettySize=auto;html=1;entryX=0;entryY=0.5;entryDx=0;entryDy=0;endArrow=classic;endFill=1;" parent="1" source="lmTZzJaFjMnNjgpMNtPa-112" target="lmTZzJaFjMnNjgpMNtPa-106" edge="1">
          <mxGeometry relative="1" as="geometry" />
        </mxCell>
        <mxCell id="lmTZzJaFjMnNjgpMNtPa-112" value="CONTROL_WORD" style="text;html=1;align=center;verticalAlign=middle;resizable=0;points=[];autosize=1;strokeColor=none;fillColor=none;" parent="1" vertex="1">
          <mxGeometry x="-109" y="-724" width="130" height="30" as="geometry" />
        </mxCell>
        <mxCell id="lmTZzJaFjMnNjgpMNtPa-120" style="edgeStyle=orthogonalEdgeStyle;rounded=0;jumpStyle=arc;jumpSize=9;orthogonalLoop=1;jettySize=auto;html=1;exitX=1;exitY=0.5;exitDx=0;exitDy=0;entryX=0;entryY=0.5;entryDx=0;entryDy=0;endArrow=classic;endFill=1;" parent="1" source="lmTZzJaFjMnNjgpMNtPa-117" target="lmTZzJaFjMnNjgpMNtPa-119" edge="1">
          <mxGeometry relative="1" as="geometry">
            <Array as="points">
              <mxPoint x="1520" y="-40" />
              <mxPoint x="1520" y="220" />
            </Array>
          </mxGeometry>
        </mxCell>
        <mxCell id="y7glqsLBrWSuBBTJrkj_-11" value="npc_de_out" style="edgeLabel;html=1;align=center;verticalAlign=middle;resizable=0;points=[];" vertex="1" connectable="0" parent="lmTZzJaFjMnNjgpMNtPa-120">
          <mxGeometry x="-0.7262" y="-1" relative="1" as="geometry">
            <mxPoint as="offset" />
          </mxGeometry>
        </mxCell>
        <mxCell id="lmTZzJaFjMnNjgpMNtPa-117" value="NPC_DE" style="whiteSpace=wrap;html=1;fillColor=#d5e8d4;strokeColor=#82b366;" parent="1" vertex="1">
          <mxGeometry x="160" y="-60" width="120" height="40" as="geometry" />
        </mxCell>
        <mxCell id="lmTZzJaFjMnNjgpMNtPa-119" value="NPC_EM" style="whiteSpace=wrap;html=1;fillColor=#d5e8d4;strokeColor=#82b366;" parent="1" vertex="1">
          <mxGeometry x="1600" y="200" width="120" height="40" as="geometry" />
        </mxCell>
        <mxCell id="lmTZzJaFjMnNjgpMNtPa-127" style="edgeStyle=orthogonalEdgeStyle;rounded=0;jumpStyle=arc;jumpSize=9;orthogonalLoop=1;jettySize=auto;html=1;entryX=0.25;entryY=1;entryDx=0;entryDy=0;endArrow=classic;endFill=1;" parent="1" source="lmTZzJaFjMnNjgpMNtPa-122" edge="1">
          <mxGeometry relative="1" as="geometry">
            <mxPoint x="-20.000000000000227" y="541" as="targetPoint" />
          </mxGeometry>
        </mxCell>
        <mxCell id="lmTZzJaFjMnNjgpMNtPa-122" value="SE_SIGNED_UNSIGNED_BAR" style="text;html=1;align=center;verticalAlign=middle;resizable=0;points=[];autosize=1;strokeColor=none;fillColor=none;" parent="1" vertex="1">
          <mxGeometry x="-115" y="596.5" width="190" height="30" as="geometry" />
        </mxCell>
        <mxCell id="lmTZzJaFjMnNjgpMNtPa-133" style="edgeStyle=orthogonalEdgeStyle;rounded=0;jumpStyle=arc;jumpSize=9;orthogonalLoop=1;jettySize=auto;html=1;exitX=1;exitY=0.5;exitDx=0;exitDy=0;entryX=0;entryY=0.5;entryDx=0;entryDy=0;endArrow=classic;endFill=1;" parent="1" source="lmTZzJaFjMnNjgpMNtPa-8" target="SToLBTXvnQJ6AA17-jK0-1" edge="1">
          <mxGeometry relative="1" as="geometry">
            <mxPoint x="-415" y="29.75" as="sourcePoint" />
            <Array as="points">
              <mxPoint x="-560" y="100" />
              <mxPoint x="-560" y="-40" />
            </Array>
          </mxGeometry>
        </mxCell>
        <mxCell id="y7glqsLBrWSuBBTJrkj_-4" value="incr_pc" style="edgeLabel;html=1;align=center;verticalAlign=middle;resizable=0;points=[];" vertex="1" connectable="0" parent="lmTZzJaFjMnNjgpMNtPa-133">
          <mxGeometry x="0.0496" y="1" relative="1" as="geometry">
            <mxPoint y="1" as="offset" />
          </mxGeometry>
        </mxCell>
        <mxCell id="lmTZzJaFjMnNjgpMNtPa-139" style="edgeStyle=orthogonalEdgeStyle;rounded=0;jumpStyle=arc;jumpSize=9;orthogonalLoop=1;jettySize=auto;html=1;exitX=1;exitY=0.5;exitDx=0;exitDy=0;entryX=0;entryY=0.75;entryDx=0;entryDy=0;endArrow=classic;endFill=1;" parent="1" source="lmTZzJaFjMnNjgpMNtPa-137" target="lmTZzJaFjMnNjgpMNtPa-138" edge="1">
          <mxGeometry relative="1" as="geometry">
            <Array as="points">
              <mxPoint x="-50" y="-315.71" />
              <mxPoint x="-50" y="-334.71" />
            </Array>
          </mxGeometry>
        </mxCell>
        <mxCell id="lmTZzJaFjMnNjgpMNtPa-137" value="*4" style="whiteSpace=wrap;html=1;fillColor=#dae8fc;strokeColor=#6c8ebf;" parent="1" vertex="1">
          <mxGeometry x="-135" y="-335.39" width="40" height="40" as="geometry" />
        </mxCell>
        <mxCell id="ecpVX0U7AmKR85L5Xxbu-58" style="edgeStyle=orthogonalEdgeStyle;rounded=0;orthogonalLoop=1;jettySize=auto;html=1;exitX=1;exitY=0.5;exitDx=0;exitDy=0;entryX=0;entryY=0.5;entryDx=0;entryDy=0;" parent="1" edge="1">
          <mxGeometry relative="1" as="geometry">
            <mxPoint x="15" y="-354.7099999999998" as="sourcePoint" />
            <mxPoint x="160" y="-355" as="targetPoint" />
          </mxGeometry>
        </mxCell>
        <mxCell id="y7glqsLBrWSuBBTJrkj_-8" value="next_jmpdest_de" style="edgeLabel;html=1;align=center;verticalAlign=middle;resizable=0;points=[];" vertex="1" connectable="0" parent="ecpVX0U7AmKR85L5Xxbu-58">
          <mxGeometry x="-0.4144" y="3" relative="1" as="geometry">
            <mxPoint x="3" y="2" as="offset" />
          </mxGeometry>
        </mxCell>
        <mxCell id="lmTZzJaFjMnNjgpMNtPa-138" value="&amp;amp;" style="whiteSpace=wrap;html=1;fillColor=#dae8fc;strokeColor=#6c8ebf;" parent="1" vertex="1">
          <mxGeometry x="-25" y="-395.05" width="40" height="80.68" as="geometry" />
        </mxCell>
        <mxCell id="lmTZzJaFjMnNjgpMNtPa-142" value="4 MSBs" style="text;html=1;align=center;verticalAlign=middle;resizable=0;points=[];autosize=1;strokeColor=none;fillColor=none;" parent="1" vertex="1">
          <mxGeometry x="-501.5" y="-88" width="70" height="30" as="geometry" />
        </mxCell>
        <mxCell id="lmTZzJaFjMnNjgpMNtPa-144" value="" style="endArrow=none;html=1;rounded=0;jumpStyle=none;jumpSize=9;" parent="1" edge="1">
          <mxGeometry width="50" height="50" relative="1" as="geometry">
            <mxPoint x="-474" y="-305.68" as="sourcePoint" />
            <mxPoint x="-454" y="-325.68" as="targetPoint" />
          </mxGeometry>
        </mxCell>
        <mxCell id="lmTZzJaFjMnNjgpMNtPa-27" style="edgeStyle=orthogonalEdgeStyle;rounded=0;orthogonalLoop=1;jettySize=auto;html=1;exitX=1;exitY=0.5;exitDx=0;exitDy=0;entryX=0.75;entryY=1;entryDx=0;entryDy=0;" parent="1" source="lmTZzJaFjMnNjgpMNtPa-18" target="lmTZzJaFjMnNjgpMNtPa-26" edge="1">
          <mxGeometry relative="1" as="geometry">
            <Array as="points">
              <mxPoint x="360" y="220" />
              <mxPoint x="360" y="267" />
              <mxPoint x="420" y="267" />
            </Array>
          </mxGeometry>
        </mxCell>
        <mxCell id="y7glqsLBrWSuBBTJrkj_-12" value="a_de_out" style="edgeLabel;html=1;align=center;verticalAlign=middle;resizable=0;points=[];" vertex="1" connectable="0" parent="lmTZzJaFjMnNjgpMNtPa-27">
          <mxGeometry x="-0.0697" y="-5" relative="1" as="geometry">
            <mxPoint y="18" as="offset" />
          </mxGeometry>
        </mxCell>
        <mxCell id="5x8gw_C9wOxPfMnRKNMZ-40" style="edgeStyle=orthogonalEdgeStyle;rounded=0;orthogonalLoop=1;jettySize=auto;html=1;entryX=0.003;entryY=0.124;entryDx=0;entryDy=0;entryPerimeter=0;strokeWidth=1;endArrow=classic;endFill=1;" parent="1" source="lmTZzJaFjMnNjgpMNtPa-146" target="lmTZzJaFjMnNjgpMNtPa-14" edge="1">
          <mxGeometry relative="1" as="geometry" />
        </mxCell>
        <mxCell id="lmTZzJaFjMnNjgpMNtPa-146" value="RF_WRITE31" style="text;html=1;align=center;verticalAlign=middle;resizable=0;points=[];autosize=1;strokeColor=none;fillColor=none;" parent="1" vertex="1">
          <mxGeometry x="-221" y="19.75" width="100" height="30" as="geometry" />
        </mxCell>
        <mxCell id="lmTZzJaFjMnNjgpMNtPa-149" style="edgeStyle=orthogonalEdgeStyle;rounded=0;jumpStyle=none;jumpSize=9;orthogonalLoop=1;jettySize=auto;html=1;entryX=0.25;entryY=1;entryDx=0;entryDy=0;endArrow=classic;endFill=1;" parent="1" source="lmTZzJaFjMnNjgpMNtPa-148" edge="1">
          <mxGeometry relative="1" as="geometry">
            <mxPoint x="830" y="96.50000000000023" as="targetPoint" />
          </mxGeometry>
        </mxCell>
        <mxCell id="lmTZzJaFjMnNjgpMNtPa-148" value="ALU_SUB_ADD_BAR" style="text;html=1;align=center;verticalAlign=middle;resizable=0;points=[];autosize=1;strokeColor=none;fillColor=none;" parent="1" vertex="1">
          <mxGeometry x="760" y="130.5" width="140" height="30" as="geometry" />
        </mxCell>
        <mxCell id="lmTZzJaFjMnNjgpMNtPa-160" style="edgeStyle=orthogonalEdgeStyle;rounded=0;jumpStyle=none;jumpSize=9;orthogonalLoop=1;jettySize=auto;html=1;exitX=1;exitY=0.5;exitDx=0;exitDy=0;endArrow=classic;endFill=1;entryX=0.14;entryY=1;entryDx=0;entryDy=0;entryPerimeter=0;" parent="1" source="lmTZzJaFjMnNjgpMNtPa-155" target="5x8gw_C9wOxPfMnRKNMZ-15" edge="1">
          <mxGeometry relative="1" as="geometry">
            <mxPoint x="1330" y="250" as="targetPoint" />
            <Array as="points">
              <mxPoint x="1350" y="57" />
              <mxPoint x="1350" y="259" />
            </Array>
          </mxGeometry>
        </mxCell>
        <mxCell id="y7glqsLBrWSuBBTJrkj_-21" value="CMP_RESULT" style="edgeLabel;html=1;align=center;verticalAlign=middle;resizable=0;points=[];" vertex="1" connectable="0" parent="lmTZzJaFjMnNjgpMNtPa-160">
          <mxGeometry x="-0.1084" y="-2" relative="1" as="geometry">
            <mxPoint as="offset" />
          </mxGeometry>
        </mxCell>
        <mxCell id="lmTZzJaFjMnNjgpMNtPa-155" value="COMPARATOR" style="whiteSpace=wrap;html=1;fillColor=#dae8fc;strokeColor=#6c8ebf;" parent="1" vertex="1">
          <mxGeometry x="1150" y="16.5" width="160" height="80" as="geometry" />
        </mxCell>
        <mxCell id="lmTZzJaFjMnNjgpMNtPa-170" style="edgeStyle=orthogonalEdgeStyle;rounded=0;jumpStyle=none;jumpSize=9;orthogonalLoop=1;jettySize=auto;html=1;entryX=1;entryY=0.5;entryDx=0;entryDy=0;endArrow=classic;endFill=1;" parent="1" source="lmTZzJaFjMnNjgpMNtPa-169" target="lmTZzJaFjMnNjgpMNtPa-45" edge="1">
          <mxGeometry relative="1" as="geometry" />
        </mxCell>
        <mxCell id="lmTZzJaFjMnNjgpMNtPa-169" value="MUL_SEL_P" style="text;html=1;align=center;verticalAlign=middle;resizable=0;points=[];autosize=1;strokeColor=none;fillColor=none;" parent="1" vertex="1">
          <mxGeometry x="1060" y="596.5" width="90" height="30" as="geometry" />
        </mxCell>
        <mxCell id="lmTZzJaFjMnNjgpMNtPa-172" style="edgeStyle=orthogonalEdgeStyle;rounded=0;jumpStyle=none;jumpSize=9;orthogonalLoop=1;jettySize=auto;html=1;entryX=1;entryY=0.5;entryDx=0;entryDy=0;endArrow=classic;endFill=1;" parent="1" source="lmTZzJaFjMnNjgpMNtPa-171" target="lmTZzJaFjMnNjgpMNtPa-46" edge="1">
          <mxGeometry relative="1" as="geometry" />
        </mxCell>
        <mxCell id="lmTZzJaFjMnNjgpMNtPa-171" value="DIV_SEL" style="text;html=1;align=center;verticalAlign=middle;resizable=0;points=[];autosize=1;strokeColor=none;fillColor=none;" parent="1" vertex="1">
          <mxGeometry x="1070" y="756.5" width="70" height="30" as="geometry" />
        </mxCell>
        <mxCell id="lmTZzJaFjMnNjgpMNtPa-173" value="1" style="text;html=1;align=center;verticalAlign=middle;resizable=0;points=[];autosize=1;strokeColor=none;fillColor=none;" parent="1" vertex="1">
          <mxGeometry x="1070" y="6.499999999999995" width="30" height="30" as="geometry" />
        </mxCell>
        <mxCell id="lmTZzJaFjMnNjgpMNtPa-174" value="" style="endArrow=none;html=1;rounded=0;jumpStyle=none;jumpSize=9;" parent="1" edge="1">
          <mxGeometry width="50" height="50" relative="1" as="geometry">
            <mxPoint x="1074" y="47.13000000000022" as="sourcePoint" />
            <mxPoint x="1094" y="27.130000000000223" as="targetPoint" />
          </mxGeometry>
        </mxCell>
        <mxCell id="lmTZzJaFjMnNjgpMNtPa-176" value="DEST" style="edgeStyle=orthogonalEdgeStyle;rounded=0;jumpStyle=none;jumpSize=9;orthogonalLoop=1;jettySize=auto;html=1;entryX=0.008;entryY=0.297;entryDx=0;entryDy=0;entryPerimeter=0;endArrow=classic;endFill=1;exitX=0.5;exitY=0;exitDx=0;exitDy=0;" parent="1" source="lmTZzJaFjMnNjgpMNtPa-182" edge="1">
          <mxGeometry relative="1" as="geometry">
            <mxPoint x="-79.03999999999996" y="206.03999999999996" as="targetPoint" />
          </mxGeometry>
        </mxCell>
        <mxCell id="lmTZzJaFjMnNjgpMNtPa-184" style="edgeStyle=orthogonalEdgeStyle;rounded=0;jumpStyle=none;jumpSize=9;orthogonalLoop=1;jettySize=auto;html=1;entryX=0.25;entryY=1;entryDx=0;entryDy=0;endArrow=classic;endFill=1;" parent="1" source="lmTZzJaFjMnNjgpMNtPa-175" target="lmTZzJaFjMnNjgpMNtPa-182" edge="1">
          <mxGeometry relative="1" as="geometry" />
        </mxCell>
        <mxCell id="lmTZzJaFjMnNjgpMNtPa-175" value="IR_MW[20-16]" style="text;html=1;align=center;verticalAlign=middle;resizable=0;points=[];autosize=1;strokeColor=none;fillColor=none;" parent="1" vertex="1">
          <mxGeometry x="-321" y="171" width="100" height="30" as="geometry" />
        </mxCell>
        <mxCell id="lmTZzJaFjMnNjgpMNtPa-182" value="" style="shape=trapezoid;perimeter=trapezoidPerimeter;whiteSpace=wrap;html=1;fixedSize=1;rotation=90;fillColor=#fff2cc;strokeColor=#d6b656;" parent="1" vertex="1">
          <mxGeometry x="-206" y="188" width="80" height="36" as="geometry" />
        </mxCell>
        <mxCell id="lmTZzJaFjMnNjgpMNtPa-186" style="edgeStyle=orthogonalEdgeStyle;rounded=0;jumpStyle=none;jumpSize=9;orthogonalLoop=1;jettySize=auto;html=1;entryX=0.75;entryY=1;entryDx=0;entryDy=0;endArrow=classic;endFill=1;" parent="1" source="lmTZzJaFjMnNjgpMNtPa-185" target="lmTZzJaFjMnNjgpMNtPa-182" edge="1">
          <mxGeometry relative="1" as="geometry" />
        </mxCell>
        <mxCell id="lmTZzJaFjMnNjgpMNtPa-185" value="IR_MW[15-11]" style="text;html=1;align=center;verticalAlign=middle;resizable=0;points=[];autosize=1;strokeColor=none;fillColor=none;" parent="1" vertex="1">
          <mxGeometry x="-321" y="211" width="100" height="30" as="geometry" />
        </mxCell>
        <mxCell id="lmTZzJaFjMnNjgpMNtPa-189" value="RF_SOURCE1" style="edgeStyle=orthogonalEdgeStyle;rounded=0;jumpStyle=none;jumpSize=9;orthogonalLoop=1;jettySize=auto;html=1;entryX=0;entryY=0.5;entryDx=0;entryDy=0;endArrow=classic;endFill=1;" parent="1" source="lmTZzJaFjMnNjgpMNtPa-188" edge="1">
          <mxGeometry relative="1" as="geometry">
            <mxPoint x="-80" y="280" as="targetPoint" />
          </mxGeometry>
        </mxCell>
        <mxCell id="lmTZzJaFjMnNjgpMNtPa-188" value="IR_FD[25-21]" style="text;html=1;align=center;verticalAlign=middle;resizable=0;points=[];autosize=1;strokeColor=none;fillColor=none;" parent="1" vertex="1">
          <mxGeometry x="-321" y="265" width="100" height="30" as="geometry" />
        </mxCell>
        <mxCell id="lmTZzJaFjMnNjgpMNtPa-191" value="RF_SOURCE2" style="edgeStyle=orthogonalEdgeStyle;rounded=0;jumpStyle=none;jumpSize=9;orthogonalLoop=1;jettySize=auto;html=1;entryX=0.003;entryY=0.61;entryDx=0;entryDy=0;entryPerimeter=0;endArrow=classic;endFill=1;" parent="1" edge="1">
          <mxGeometry relative="1" as="geometry">
            <mxPoint x="-221" y="321.0000000000002" as="sourcePoint" />
            <mxPoint x="-79.63999999999987" y="321.20000000000005" as="targetPoint" />
            <Array as="points">
              <mxPoint x="-110" y="321" />
              <mxPoint x="-110" y="321" />
            </Array>
          </mxGeometry>
        </mxCell>
        <mxCell id="lmTZzJaFjMnNjgpMNtPa-190" value="IR_FD[20-16]" style="text;html=1;align=center;verticalAlign=middle;resizable=0;points=[];autosize=1;strokeColor=none;fillColor=none;" parent="1" vertex="1">
          <mxGeometry x="-321" y="305" width="100" height="30" as="geometry" />
        </mxCell>
        <mxCell id="lmTZzJaFjMnNjgpMNtPa-195" style="edgeStyle=orthogonalEdgeStyle;rounded=0;jumpStyle=none;jumpSize=9;orthogonalLoop=1;jettySize=auto;html=1;entryX=0;entryY=0.5;entryDx=0;entryDy=0;endArrow=classic;endFill=1;" parent="1" source="lmTZzJaFjMnNjgpMNtPa-194" target="lmTZzJaFjMnNjgpMNtPa-16" edge="1">
          <mxGeometry relative="1" as="geometry" />
        </mxCell>
        <mxCell id="lmTZzJaFjMnNjgpMNtPa-194" value="IR_FD[15-0]" style="text;html=1;align=center;verticalAlign=middle;resizable=0;points=[];autosize=1;strokeColor=none;fillColor=none;" parent="1" vertex="1">
          <mxGeometry x="-222" y="496" width="90" height="30" as="geometry" />
        </mxCell>
        <mxCell id="lmTZzJaFjMnNjgpMNtPa-197" value="16" style="text;html=1;align=center;verticalAlign=middle;resizable=0;points=[];autosize=1;strokeColor=none;fillColor=none;" parent="1" vertex="1">
          <mxGeometry x="-131" y="511" width="40" height="30" as="geometry" />
        </mxCell>
        <mxCell id="lmTZzJaFjMnNjgpMNtPa-201" value="" style="endArrow=none;html=1;rounded=0;jumpStyle=none;jumpSize=9;" parent="1" edge="1">
          <mxGeometry width="50" height="50" relative="1" as="geometry">
            <mxPoint x="-121" y="520.9999999999998" as="sourcePoint" />
            <mxPoint x="-101" y="500.9999999999998" as="targetPoint" />
          </mxGeometry>
        </mxCell>
        <mxCell id="lmTZzJaFjMnNjgpMNtPa-207" value="" style="edgeStyle=orthogonalEdgeStyle;rounded=0;jumpStyle=none;jumpSize=9;orthogonalLoop=1;jettySize=auto;html=1;endArrow=classic;endFill=1;exitX=1;exitY=0.5;exitDx=0;exitDy=0;" parent="1" source="lmTZzJaFjMnNjgpMNtPa-203" target="lmTZzJaFjMnNjgpMNtPa-205" edge="1">
          <mxGeometry relative="1" as="geometry">
            <mxPoint x="1620" y="1000" as="sourcePoint" />
          </mxGeometry>
        </mxCell>
        <mxCell id="y7glqsLBrWSuBBTJrkj_-15" value="ir_de_out" style="edgeLabel;html=1;align=center;verticalAlign=middle;resizable=0;points=[];" vertex="1" connectable="0" parent="lmTZzJaFjMnNjgpMNtPa-207">
          <mxGeometry x="-0.581" y="-4" relative="1" as="geometry">
            <mxPoint as="offset" />
          </mxGeometry>
        </mxCell>
        <mxCell id="lmTZzJaFjMnNjgpMNtPa-203" value="IR_DE" style="whiteSpace=wrap;html=1;fillColor=#d5e8d4;strokeColor=#82b366;" parent="1" vertex="1">
          <mxGeometry x="170" y="980" width="80" height="33" as="geometry" />
        </mxCell>
        <mxCell id="lmTZzJaFjMnNjgpMNtPa-208" value="" style="edgeStyle=orthogonalEdgeStyle;rounded=0;jumpStyle=none;jumpSize=9;orthogonalLoop=1;jettySize=auto;html=1;endArrow=classic;endFill=1;" parent="1" source="lmTZzJaFjMnNjgpMNtPa-205" target="lmTZzJaFjMnNjgpMNtPa-206" edge="1">
          <mxGeometry relative="1" as="geometry" />
        </mxCell>
        <mxCell id="y7glqsLBrWSuBBTJrkj_-32" value="ir_em_out" style="edgeLabel;html=1;align=center;verticalAlign=middle;resizable=0;points=[];" vertex="1" connectable="0" parent="lmTZzJaFjMnNjgpMNtPa-208">
          <mxGeometry x="-0.4525" y="-1" relative="1" as="geometry">
            <mxPoint as="offset" />
          </mxGeometry>
        </mxCell>
        <mxCell id="lmTZzJaFjMnNjgpMNtPa-205" value="IR_EM&lt;span style=&quot;color: rgba(0, 0, 0, 0); font-family: monospace; font-size: 0px; text-align: start;&quot;&gt;%3CmxGraphModel%3E%3Croot%3E%3CmxCell%20id%3D%220%22%2F%3E%3CmxCell%20id%3D%221%22%20parent%3D%220%22%2F%3E%3CmxCell%20id%3D%222%22%20value%3D%22IR_FE%22%20style%3D%22whiteSpace%3Dwrap%3Bhtml%3D1%3B%22%20vertex%3D%221%22%20parent%3D%221%22%3E%3CmxGeometry%20x%3D%22-195%22%20y%3D%221080%22%20width%3D%2280%22%20height%3D%2240%22%20as%3D%22geometry%22%2F%3E%3C%2FmxCell%3E%3C%2Froot%3E%3C%2FmxGraphModel%3E&lt;/span&gt;" style="whiteSpace=wrap;html=1;fillColor=#d5e8d4;strokeColor=#82b366;" parent="1" vertex="1">
          <mxGeometry x="1615" y="980" width="80" height="33" as="geometry" />
        </mxCell>
        <mxCell id="y7glqsLBrWSuBBTJrkj_-42" style="edgeStyle=orthogonalEdgeStyle;rounded=0;orthogonalLoop=1;jettySize=auto;html=1;exitX=1;exitY=0.5;exitDx=0;exitDy=0;" edge="1" parent="1" source="lmTZzJaFjMnNjgpMNtPa-206">
          <mxGeometry relative="1" as="geometry">
            <mxPoint x="2530" y="996.6153846153843" as="targetPoint" />
          </mxGeometry>
        </mxCell>
        <mxCell id="y7glqsLBrWSuBBTJrkj_-43" value="ir_mw_out" style="edgeLabel;html=1;align=center;verticalAlign=middle;resizable=0;points=[];" vertex="1" connectable="0" parent="y7glqsLBrWSuBBTJrkj_-42">
          <mxGeometry x="0.1889" y="-1" relative="1" as="geometry">
            <mxPoint as="offset" />
          </mxGeometry>
        </mxCell>
        <mxCell id="lmTZzJaFjMnNjgpMNtPa-206" value="IR_MW&lt;span style=&quot;color: rgba(0, 0, 0, 0); font-family: monospace; font-size: 0px; text-align: start;&quot;&gt;%3CmxGraphModel%3E%3Croot%3E%3CmxCell%20id%3D%220%22%2F%3E%3CmxCell%20id%3D%221%22%20parent%3D%220%22%2F%3E%3CmxCell%20id%3D%222%22%20value%3D%22IR_FE%22%20style%3D%22whiteSpace%3Dwrap%3Bhtml%3D1%3B%22%20vertex%3D%221%22%20parent%3D%221%22%3E%3CmxGeometry%20x%3D%22-195%22%20y%3D%221080%22%20width%3D%2280%22%20height%3D%2240%22%20as%3D%22geometry%22%2F%3E%3C%2FmxCell%3E%3C%2Froot%3E%3C%2FmxGraphModel%3E&lt;/span&gt;" style="whiteSpace=wrap;html=1;fillColor=#d5e8d4;strokeColor=#82b366;" parent="1" vertex="1">
          <mxGeometry x="2240" y="980" width="80" height="33" as="geometry" />
        </mxCell>
        <mxCell id="lmTZzJaFjMnNjgpMNtPa-210" style="edgeStyle=orthogonalEdgeStyle;rounded=0;jumpStyle=none;jumpSize=9;orthogonalLoop=1;jettySize=auto;html=1;entryX=0;entryY=0.5;entryDx=0;entryDy=0;endArrow=classic;endFill=1;" parent="1" source="lmTZzJaFjMnNjgpMNtPa-209" target="lmTZzJaFjMnNjgpMNtPa-182" edge="1">
          <mxGeometry relative="1" as="geometry" />
        </mxCell>
        <mxCell id="lmTZzJaFjMnNjgpMNtPa-209" value="RF_SEL_DEST" style="text;html=1;align=center;verticalAlign=middle;resizable=0;points=[];autosize=1;strokeColor=none;fillColor=none;" parent="1" vertex="1">
          <mxGeometry x="-221" y="100.5" width="110" height="30" as="geometry" />
        </mxCell>
        <mxCell id="lmTZzJaFjMnNjgpMNtPa-212" style="edgeStyle=orthogonalEdgeStyle;rounded=0;jumpStyle=none;jumpSize=9;orthogonalLoop=1;jettySize=auto;html=1;entryX=0.118;entryY=0.002;entryDx=0;entryDy=0;entryPerimeter=0;endArrow=classic;endFill=1;" parent="1" source="lmTZzJaFjMnNjgpMNtPa-211" target="lmTZzJaFjMnNjgpMNtPa-14" edge="1">
          <mxGeometry relative="1" as="geometry">
            <Array as="points">
              <mxPoint x="-66" y="50" />
              <mxPoint x="-66" y="50" />
            </Array>
          </mxGeometry>
        </mxCell>
        <mxCell id="lmTZzJaFjMnNjgpMNtPa-211" value="RF_RD1" style="text;html=1;align=center;verticalAlign=middle;resizable=0;points=[];autosize=1;strokeColor=none;fillColor=none;" parent="1" vertex="1">
          <mxGeometry x="-100" y="-30" width="70" height="30" as="geometry" />
        </mxCell>
        <mxCell id="lmTZzJaFjMnNjgpMNtPa-214" value="" style="edgeStyle=orthogonalEdgeStyle;rounded=0;jumpStyle=none;jumpSize=9;orthogonalLoop=1;jettySize=auto;html=1;endArrow=classic;endFill=1;" parent="1" source="lmTZzJaFjMnNjgpMNtPa-213" target="lmTZzJaFjMnNjgpMNtPa-14" edge="1">
          <mxGeometry relative="1" as="geometry" />
        </mxCell>
        <mxCell id="lmTZzJaFjMnNjgpMNtPa-213" value="RF_RD2" style="text;html=1;align=center;verticalAlign=middle;resizable=0;points=[];autosize=1;strokeColor=none;fillColor=none;" parent="1" vertex="1">
          <mxGeometry x="-55" y="6.5" width="70" height="30" as="geometry" />
        </mxCell>
        <mxCell id="lmTZzJaFjMnNjgpMNtPa-218" style="edgeStyle=orthogonalEdgeStyle;rounded=0;jumpStyle=none;jumpSize=9;orthogonalLoop=1;jettySize=auto;html=1;entryX=0.878;entryY=0;entryDx=0;entryDy=0;entryPerimeter=0;endArrow=classic;endFill=1;" parent="1" source="lmTZzJaFjMnNjgpMNtPa-217" target="lmTZzJaFjMnNjgpMNtPa-14" edge="1">
          <mxGeometry relative="1" as="geometry">
            <Array as="points">
              <mxPoint x="25" y="80" />
            </Array>
          </mxGeometry>
        </mxCell>
        <mxCell id="lmTZzJaFjMnNjgpMNtPa-217" value="RF_WR" style="text;html=1;align=center;verticalAlign=middle;resizable=0;points=[];autosize=1;strokeColor=none;fillColor=none;" parent="1" vertex="1">
          <mxGeometry x="-10" y="-30" width="70" height="30" as="geometry" />
        </mxCell>
        <mxCell id="lmTZzJaFjMnNjgpMNtPa-229" style="edgeStyle=orthogonalEdgeStyle;rounded=0;jumpStyle=none;jumpSize=9;orthogonalLoop=1;jettySize=auto;html=1;entryX=0.25;entryY=1;entryDx=0;entryDy=0;endArrow=classic;endFill=1;" parent="1" source="lmTZzJaFjMnNjgpMNtPa-228" edge="1">
          <mxGeometry relative="1" as="geometry">
            <mxPoint x="830" y="256.5000000000002" as="targetPoint" />
          </mxGeometry>
        </mxCell>
        <mxCell id="lmTZzJaFjMnNjgpMNtPa-228" value="ALU_LOGIC_SEL" style="text;html=1;align=center;verticalAlign=middle;resizable=0;points=[];autosize=1;strokeColor=none;fillColor=none;" parent="1" vertex="1">
          <mxGeometry x="770" y="294.5" width="120" height="30" as="geometry" />
        </mxCell>
        <mxCell id="lmTZzJaFjMnNjgpMNtPa-230" value="4" style="text;html=1;align=center;verticalAlign=middle;resizable=0;points=[];autosize=1;strokeColor=none;fillColor=none;" parent="1" vertex="1">
          <mxGeometry x="828" y="267.5" width="30" height="30" as="geometry" />
        </mxCell>
        <mxCell id="lmTZzJaFjMnNjgpMNtPa-231" value="" style="endArrow=none;html=1;rounded=0;jumpStyle=none;jumpSize=9;" parent="1" edge="1">
          <mxGeometry width="50" height="50" relative="1" as="geometry">
            <mxPoint x="820" y="288.5" as="sourcePoint" />
            <mxPoint x="840" y="268.5" as="targetPoint" />
          </mxGeometry>
        </mxCell>
        <mxCell id="lmTZzJaFjMnNjgpMNtPa-234" style="edgeStyle=orthogonalEdgeStyle;rounded=0;jumpStyle=none;jumpSize=9;orthogonalLoop=1;jettySize=auto;html=1;entryX=0.25;entryY=1;entryDx=0;entryDy=0;endArrow=classic;endFill=1;" parent="1" edge="1">
          <mxGeometry relative="1" as="geometry">
            <mxPoint x="830.0000000000005" y="416" as="targetPoint" />
            <mxPoint x="830" y="454" as="sourcePoint" />
          </mxGeometry>
        </mxCell>
        <mxCell id="lmTZzJaFjMnNjgpMNtPa-235" value="ALU_SHIFT_SEL" style="text;html=1;align=center;verticalAlign=middle;resizable=0;points=[];autosize=1;strokeColor=none;fillColor=none;" parent="1" vertex="1">
          <mxGeometry x="770" y="451.5" width="120" height="30" as="geometry" />
        </mxCell>
        <mxCell id="lmTZzJaFjMnNjgpMNtPa-236" value="2" style="text;html=1;align=center;verticalAlign=middle;resizable=0;points=[];autosize=1;strokeColor=none;fillColor=none;" parent="1" vertex="1">
          <mxGeometry x="828" y="427" width="30" height="30" as="geometry" />
        </mxCell>
        <mxCell id="lmTZzJaFjMnNjgpMNtPa-237" value="" style="endArrow=none;html=1;rounded=0;jumpStyle=none;jumpSize=9;" parent="1" edge="1">
          <mxGeometry width="50" height="50" relative="1" as="geometry">
            <mxPoint x="820.0000000000005" y="448" as="sourcePoint" />
            <mxPoint x="840.0000000000005" y="428" as="targetPoint" />
          </mxGeometry>
        </mxCell>
        <mxCell id="lmTZzJaFjMnNjgpMNtPa-238" style="edgeStyle=orthogonalEdgeStyle;rounded=0;jumpStyle=none;jumpSize=9;orthogonalLoop=1;jettySize=auto;html=1;entryX=0.75;entryY=1;entryDx=0;entryDy=0;endArrow=classic;endFill=1;" parent="1" source="lmTZzJaFjMnNjgpMNtPa-239" edge="1">
          <mxGeometry relative="1" as="geometry">
            <mxPoint x="830.0000000000005" y="577.5" as="targetPoint" />
          </mxGeometry>
        </mxCell>
        <mxCell id="lmTZzJaFjMnNjgpMNtPa-239" value="MUL_START" style="text;html=1;align=center;verticalAlign=middle;resizable=0;points=[];autosize=1;strokeColor=none;fillColor=none;" parent="1" vertex="1">
          <mxGeometry x="785" y="615.5" width="90" height="30" as="geometry" />
        </mxCell>
        <mxCell id="lmTZzJaFjMnNjgpMNtPa-240" style="edgeStyle=orthogonalEdgeStyle;rounded=0;jumpStyle=none;jumpSize=9;orthogonalLoop=1;jettySize=auto;html=1;entryX=0.75;entryY=1;entryDx=0;entryDy=0;endArrow=classic;endFill=1;" parent="1" source="lmTZzJaFjMnNjgpMNtPa-241" edge="1">
          <mxGeometry relative="1" as="geometry">
            <mxPoint x="870.0000000000005" y="737.5" as="targetPoint" />
          </mxGeometry>
        </mxCell>
        <mxCell id="lmTZzJaFjMnNjgpMNtPa-241" value="DIV_START" style="text;html=1;align=center;verticalAlign=middle;resizable=0;points=[];autosize=1;strokeColor=none;fillColor=none;" parent="1" vertex="1">
          <mxGeometry x="825" y="775.5" width="90" height="30" as="geometry" />
        </mxCell>
        <mxCell id="lmTZzJaFjMnNjgpMNtPa-243" style="edgeStyle=orthogonalEdgeStyle;rounded=0;jumpStyle=none;jumpSize=9;orthogonalLoop=1;jettySize=auto;html=1;entryX=0.25;entryY=1;entryDx=0;entryDy=0;endArrow=classic;endFill=1;" parent="1" source="lmTZzJaFjMnNjgpMNtPa-242" target="lmTZzJaFjMnNjgpMNtPa-3" edge="1">
          <mxGeometry relative="1" as="geometry" />
        </mxCell>
        <mxCell id="lmTZzJaFjMnNjgpMNtPa-242" value="DIV_SIGNED_UNSIGNED_BAR" style="text;html=1;align=center;verticalAlign=middle;resizable=0;points=[];autosize=1;strokeColor=none;fillColor=none;" parent="1" vertex="1">
          <mxGeometry x="690" y="805.5" width="200" height="30" as="geometry" />
        </mxCell>
        <mxCell id="lmTZzJaFjMnNjgpMNtPa-249" style="edgeStyle=orthogonalEdgeStyle;rounded=0;jumpStyle=none;jumpSize=9;orthogonalLoop=1;jettySize=auto;html=1;entryX=0.75;entryY=1;entryDx=0;entryDy=0;endArrow=classic;endFill=1;" parent="1" source="lmTZzJaFjMnNjgpMNtPa-248" edge="1">
          <mxGeometry relative="1" as="geometry">
            <mxPoint x="1230" y="96.5" as="targetPoint" />
          </mxGeometry>
        </mxCell>
        <mxCell id="lmTZzJaFjMnNjgpMNtPa-248" value="CMP_CONFIG" style="text;html=1;align=center;verticalAlign=middle;resizable=0;points=[];autosize=1;strokeColor=none;fillColor=none;" parent="1" vertex="1">
          <mxGeometry x="1180" y="139.5" width="100" height="30" as="geometry" />
        </mxCell>
        <mxCell id="lmTZzJaFjMnNjgpMNtPa-250" value="3" style="text;html=1;align=center;verticalAlign=middle;resizable=0;points=[];autosize=1;strokeColor=none;fillColor=none;" parent="1" vertex="1">
          <mxGeometry x="1200" y="103.5" width="30" height="30" as="geometry" />
        </mxCell>
        <mxCell id="lmTZzJaFjMnNjgpMNtPa-251" value="" style="endArrow=none;html=1;rounded=0;jumpStyle=none;jumpSize=9;" parent="1" edge="1">
          <mxGeometry width="50" height="50" relative="1" as="geometry">
            <mxPoint x="1220" y="130.5" as="sourcePoint" />
            <mxPoint x="1240" y="110.5" as="targetPoint" />
          </mxGeometry>
        </mxCell>
        <mxCell id="lmTZzJaFjMnNjgpMNtPa-253" style="edgeStyle=orthogonalEdgeStyle;rounded=0;jumpStyle=none;jumpSize=9;orthogonalLoop=1;jettySize=auto;html=1;entryX=1;entryY=0.5;entryDx=0;entryDy=0;endArrow=classic;endFill=1;" parent="1" source="lmTZzJaFjMnNjgpMNtPa-252" target="lmTZzJaFjMnNjgpMNtPa-67" edge="1">
          <mxGeometry relative="1" as="geometry" />
        </mxCell>
        <mxCell id="lmTZzJaFjMnNjgpMNtPa-252" value="WB_SEL" style="text;html=1;align=center;verticalAlign=middle;resizable=0;points=[];autosize=1;strokeColor=none;fillColor=none;" parent="1" vertex="1">
          <mxGeometry x="2466.25" y="451" width="70" height="30" as="geometry" />
        </mxCell>
        <mxCell id="lmTZzJaFjMnNjgpMNtPa-257" style="edgeStyle=orthogonalEdgeStyle;rounded=0;jumpStyle=none;jumpSize=9;orthogonalLoop=1;jettySize=auto;html=1;entryX=1;entryY=0.5;entryDx=0;entryDy=0;endArrow=classic;endFill=1;" parent="1" source="lmTZzJaFjMnNjgpMNtPa-256" edge="1">
          <mxGeometry relative="1" as="geometry">
            <Array as="points">
              <mxPoint x="1420" y="511.38" />
              <mxPoint x="1420" y="511.38" />
            </Array>
            <mxPoint x="1420" y="490.63" as="targetPoint" />
          </mxGeometry>
        </mxCell>
        <mxCell id="lmTZzJaFjMnNjgpMNtPa-256" value="EX_SEL_OUT" style="text;html=1;align=center;verticalAlign=middle;resizable=0;points=[];autosize=1;strokeColor=none;fillColor=none;" parent="1" vertex="1">
          <mxGeometry x="1370" y="546.5" width="100" height="30" as="geometry" />
        </mxCell>
        <mxCell id="ecpVX0U7AmKR85L5Xxbu-1" value="1" style="text;html=1;align=center;verticalAlign=middle;resizable=0;points=[];autosize=1;strokeColor=none;fillColor=none;" parent="1" vertex="1">
          <mxGeometry x="1230" y="-133.5" width="30" height="30" as="geometry" />
        </mxCell>
        <mxCell id="ecpVX0U7AmKR85L5Xxbu-2" value="" style="endArrow=none;html=1;rounded=0;jumpStyle=none;jumpSize=9;" parent="1" edge="1">
          <mxGeometry width="50" height="50" relative="1" as="geometry">
            <mxPoint x="1230" y="-123.5" as="sourcePoint" />
            <mxPoint x="1250" y="-143.5" as="targetPoint" />
          </mxGeometry>
        </mxCell>
        <mxCell id="ecpVX0U7AmKR85L5Xxbu-3" value="1" style="text;html=1;align=center;verticalAlign=middle;resizable=0;points=[];autosize=1;strokeColor=none;fillColor=none;" parent="1" vertex="1">
          <mxGeometry x="1787" y="-133" width="30" height="30" as="geometry" />
        </mxCell>
        <mxCell id="ecpVX0U7AmKR85L5Xxbu-4" value="" style="endArrow=none;html=1;rounded=0;jumpStyle=none;jumpSize=9;" parent="1" edge="1">
          <mxGeometry width="50" height="50" relative="1" as="geometry">
            <mxPoint x="1787" y="-123" as="sourcePoint" />
            <mxPoint x="1807" y="-143" as="targetPoint" />
          </mxGeometry>
        </mxCell>
        <mxCell id="ecpVX0U7AmKR85L5Xxbu-7" style="edgeStyle=orthogonalEdgeStyle;rounded=0;orthogonalLoop=1;jettySize=auto;html=1;entryX=0;entryY=0.5;entryDx=0;entryDy=0;" parent="1" source="ecpVX0U7AmKR85L5Xxbu-6" target="lmTZzJaFjMnNjgpMNtPa-137" edge="1">
          <mxGeometry relative="1" as="geometry" />
        </mxCell>
        <mxCell id="ecpVX0U7AmKR85L5Xxbu-6" value="ir_fd_out[25-0]" style="text;html=1;align=center;verticalAlign=middle;resizable=0;points=[];autosize=1;strokeColor=none;fillColor=none;" parent="1" vertex="1">
          <mxGeometry x="-310" y="-330.39" width="100" height="30" as="geometry" />
        </mxCell>
        <mxCell id="ecpVX0U7AmKR85L5Xxbu-14" style="edgeStyle=orthogonalEdgeStyle;rounded=0;orthogonalLoop=1;jettySize=auto;html=1;exitX=0.5;exitY=0;exitDx=0;exitDy=0;entryX=0.75;entryY=1;entryDx=0;entryDy=0;" parent="1" source="ecpVX0U7AmKR85L5Xxbu-10" target="lmTZzJaFjMnNjgpMNtPa-71" edge="1">
          <mxGeometry relative="1" as="geometry" />
        </mxCell>
        <mxCell id="y7glqsLBrWSuBBTJrkj_-33" value="jmp_mux" style="edgeLabel;html=1;align=center;verticalAlign=middle;resizable=0;points=[];" vertex="1" connectable="0" parent="ecpVX0U7AmKR85L5Xxbu-14">
          <mxGeometry x="-0.0058" y="2" relative="1" as="geometry">
            <mxPoint as="offset" />
          </mxGeometry>
        </mxCell>
        <mxCell id="ecpVX0U7AmKR85L5Xxbu-10" value="" style="shape=trapezoid;perimeter=trapezoidPerimeter;whiteSpace=wrap;html=1;fixedSize=1;rotation=90;fillColor=#fff2cc;strokeColor=#d6b656;" parent="1" vertex="1">
          <mxGeometry x="1913.07" y="-303.68" width="120" height="35.13" as="geometry" />
        </mxCell>
        <mxCell id="ecpVX0U7AmKR85L5Xxbu-11" value="0" style="text;html=1;align=center;verticalAlign=middle;resizable=0;points=[];autosize=1;strokeColor=none;fillColor=none;" parent="1" vertex="1">
          <mxGeometry x="1955.5" y="-325.68" width="30" height="30" as="geometry" />
        </mxCell>
        <mxCell id="ecpVX0U7AmKR85L5Xxbu-12" value="1" style="text;html=1;align=center;verticalAlign=middle;resizable=0;points=[];autosize=1;strokeColor=none;fillColor=none;" parent="1" vertex="1">
          <mxGeometry x="1955.5" y="-267" width="30" height="30" as="geometry" />
        </mxCell>
        <mxCell id="ecpVX0U7AmKR85L5Xxbu-13" style="edgeStyle=orthogonalEdgeStyle;rounded=0;jumpStyle=arc;jumpSize=9;orthogonalLoop=1;jettySize=auto;html=1;exitX=1;exitY=0.5;exitDx=0;exitDy=0;exitPerimeter=0;entryX=1;entryY=0.5;entryDx=0;entryDy=0;" parent="1" source="ecpVX0U7AmKR85L5Xxbu-15" target="ecpVX0U7AmKR85L5Xxbu-10" edge="1">
          <mxGeometry relative="1" as="geometry">
            <mxPoint x="1976.75" y="-207.37" as="sourcePoint" />
          </mxGeometry>
        </mxCell>
        <mxCell id="ecpVX0U7AmKR85L5Xxbu-15" value="" style="shape=or;whiteSpace=wrap;html=1;rotation=-90;fillColor=#dae8fc;strokeColor=#6c8ebf;" parent="1" vertex="1">
          <mxGeometry x="1957.75" y="-202" width="30" height="40" as="geometry" />
        </mxCell>
        <mxCell id="ecpVX0U7AmKR85L5Xxbu-16" value="00" style="text;html=1;align=center;verticalAlign=middle;resizable=0;points=[];autosize=1;strokeColor=none;fillColor=none;" parent="1" vertex="1">
          <mxGeometry x="2475" y="298.12" width="40" height="30" as="geometry" />
        </mxCell>
        <mxCell id="ecpVX0U7AmKR85L5Xxbu-17" value="01" style="text;html=1;align=center;verticalAlign=middle;resizable=0;points=[];autosize=1;strokeColor=none;fillColor=none;" parent="1" vertex="1">
          <mxGeometry x="2475" y="334.37" width="40" height="30" as="geometry" />
        </mxCell>
        <mxCell id="ecpVX0U7AmKR85L5Xxbu-18" value="10" style="text;html=1;align=center;verticalAlign=middle;resizable=0;points=[];autosize=1;strokeColor=none;fillColor=none;" parent="1" vertex="1">
          <mxGeometry x="2475" y="371.5" width="40" height="30" as="geometry" />
        </mxCell>
        <mxCell id="ecpVX0U7AmKR85L5Xxbu-19" value="0" style="text;html=1;align=center;verticalAlign=middle;resizable=0;points=[];autosize=1;strokeColor=none;fillColor=none;" parent="1" vertex="1">
          <mxGeometry x="-189" y="171" width="30" height="30" as="geometry" />
        </mxCell>
        <mxCell id="ecpVX0U7AmKR85L5Xxbu-20" value="1" style="text;html=1;align=center;verticalAlign=middle;resizable=0;points=[];autosize=1;strokeColor=none;fillColor=none;rotation=0;" parent="1" vertex="1">
          <mxGeometry x="-189" y="211" width="30" height="30" as="geometry" />
        </mxCell>
        <mxCell id="ecpVX0U7AmKR85L5Xxbu-21" value="0" style="text;html=1;align=center;verticalAlign=middle;resizable=0;points=[];autosize=1;strokeColor=none;fillColor=none;" parent="1" vertex="1">
          <mxGeometry x="420" y="192.5" width="30" height="30" as="geometry" />
        </mxCell>
        <mxCell id="ecpVX0U7AmKR85L5Xxbu-23" value="1" style="text;html=1;align=center;verticalAlign=middle;resizable=0;points=[];autosize=1;strokeColor=none;fillColor=none;" parent="1" vertex="1">
          <mxGeometry x="420" y="251.5" width="30" height="30" as="geometry" />
        </mxCell>
        <mxCell id="ecpVX0U7AmKR85L5Xxbu-28" value="0" style="text;html=1;align=center;verticalAlign=middle;resizable=0;points=[];autosize=1;strokeColor=none;fillColor=none;" parent="1" vertex="1">
          <mxGeometry x="420" y="371.5" width="30" height="30" as="geometry" />
        </mxCell>
        <mxCell id="ecpVX0U7AmKR85L5Xxbu-30" value="1" style="text;html=1;align=center;verticalAlign=middle;resizable=0;points=[];autosize=1;strokeColor=none;fillColor=none;" parent="1" vertex="1">
          <mxGeometry x="420" y="431.5" width="30" height="30" as="geometry" />
        </mxCell>
        <mxCell id="ecpVX0U7AmKR85L5Xxbu-31" value="000" style="text;html=1;align=center;verticalAlign=middle;resizable=0;points=[];autosize=1;strokeColor=none;fillColor=none;" parent="1" vertex="1">
          <mxGeometry x="1396" y="245" width="40" height="30" as="geometry" />
        </mxCell>
        <mxCell id="ecpVX0U7AmKR85L5Xxbu-32" value="001" style="text;html=1;align=center;verticalAlign=middle;resizable=0;points=[];autosize=1;strokeColor=none;fillColor=none;" parent="1" vertex="1">
          <mxGeometry x="1396" y="285" width="40" height="30" as="geometry" />
        </mxCell>
        <mxCell id="ecpVX0U7AmKR85L5Xxbu-33" value="010" style="text;html=1;align=center;verticalAlign=middle;resizable=0;points=[];autosize=1;strokeColor=none;fillColor=none;" parent="1" vertex="1">
          <mxGeometry x="1396" y="324.5" width="40" height="30" as="geometry" />
        </mxCell>
        <mxCell id="ecpVX0U7AmKR85L5Xxbu-34" value="011" style="text;html=1;align=center;verticalAlign=middle;resizable=0;points=[];autosize=1;strokeColor=none;fillColor=none;" parent="1" vertex="1">
          <mxGeometry x="1396" y="361.5" width="40" height="30" as="geometry" />
        </mxCell>
        <mxCell id="ecpVX0U7AmKR85L5Xxbu-35" value="100" style="text;html=1;align=center;verticalAlign=middle;resizable=0;points=[];autosize=1;strokeColor=none;fillColor=none;" parent="1" vertex="1">
          <mxGeometry x="1396" y="401.5" width="40" height="30" as="geometry" />
        </mxCell>
        <mxCell id="ecpVX0U7AmKR85L5Xxbu-36" value="101" style="text;html=1;align=center;verticalAlign=middle;resizable=0;points=[];autosize=1;strokeColor=none;fillColor=none;" parent="1" vertex="1">
          <mxGeometry x="1396" y="441" width="40" height="30" as="geometry" />
        </mxCell>
        <mxCell id="ecpVX0U7AmKR85L5Xxbu-38" style="edgeStyle=orthogonalEdgeStyle;rounded=0;orthogonalLoop=1;jettySize=auto;html=1;entryX=0.5;entryY=0;entryDx=0;entryDy=0;" parent="1" source="ecpVX0U7AmKR85L5Xxbu-37" target="lmTZzJaFjMnNjgpMNtPa-106" edge="1">
          <mxGeometry relative="1" as="geometry" />
        </mxCell>
        <mxCell id="ecpVX0U7AmKR85L5Xxbu-37" value="single_cycle_enable" style="text;html=1;align=center;verticalAlign=middle;resizable=0;points=[];autosize=1;strokeColor=none;fillColor=none;" parent="1" vertex="1">
          <mxGeometry x="156" y="-833" width="130" height="30" as="geometry" />
        </mxCell>
        <mxCell id="ecpVX0U7AmKR85L5Xxbu-42" style="edgeStyle=orthogonalEdgeStyle;rounded=0;orthogonalLoop=1;jettySize=auto;html=1;entryX=0.5;entryY=0;entryDx=0;entryDy=0;" parent="1" source="ecpVX0U7AmKR85L5Xxbu-43" edge="1">
          <mxGeometry relative="1" as="geometry">
            <mxPoint x="1661" y="-743" as="targetPoint" />
          </mxGeometry>
        </mxCell>
        <mxCell id="ecpVX0U7AmKR85L5Xxbu-43" value="single_cycle_enable" style="text;html=1;align=center;verticalAlign=middle;resizable=0;points=[];autosize=1;strokeColor=none;fillColor=none;" parent="1" vertex="1">
          <mxGeometry x="1596" y="-833" width="130" height="30" as="geometry" />
        </mxCell>
        <mxCell id="ecpVX0U7AmKR85L5Xxbu-44" style="edgeStyle=orthogonalEdgeStyle;rounded=0;orthogonalLoop=1;jettySize=auto;html=1;entryX=0.5;entryY=0;entryDx=0;entryDy=0;" parent="1" source="ecpVX0U7AmKR85L5Xxbu-45" edge="1">
          <mxGeometry relative="1" as="geometry">
            <mxPoint x="2281" y="-743" as="targetPoint" />
          </mxGeometry>
        </mxCell>
        <mxCell id="ecpVX0U7AmKR85L5Xxbu-45" value="single_cycle_enable" style="text;html=1;align=center;verticalAlign=middle;resizable=0;points=[];autosize=1;strokeColor=none;fillColor=none;" parent="1" vertex="1">
          <mxGeometry x="2216" y="-833" width="130" height="30" as="geometry" />
        </mxCell>
        <mxCell id="ecpVX0U7AmKR85L5Xxbu-49" value="MUL_DONE" style="text;html=1;align=center;verticalAlign=middle;resizable=0;points=[];autosize=1;strokeColor=none;fillColor=none;" parent="1" vertex="1">
          <mxGeometry x="955" y="466" width="90" height="30" as="geometry" />
        </mxCell>
        <mxCell id="ecpVX0U7AmKR85L5Xxbu-51" value="DIV_DONE" style="text;html=1;align=center;verticalAlign=middle;resizable=0;points=[];autosize=1;strokeColor=none;fillColor=none;" parent="1" vertex="1">
          <mxGeometry x="960" y="624.5" width="80" height="30" as="geometry" />
        </mxCell>
        <mxCell id="ecpVX0U7AmKR85L5Xxbu-54" style="edgeStyle=orthogonalEdgeStyle;rounded=0;orthogonalLoop=1;jettySize=auto;html=1;entryX=0.5;entryY=0;entryDx=0;entryDy=0;" parent="1" target="lmTZzJaFjMnNjgpMNtPa-5" edge="1">
          <mxGeometry relative="1" as="geometry">
            <mxPoint x="-840" y="200.75" as="sourcePoint" />
            <Array as="points">
              <mxPoint x="-840" y="200.75" />
            </Array>
          </mxGeometry>
        </mxCell>
        <mxCell id="ecpVX0U7AmKR85L5Xxbu-56" value="single_cycle_enable" style="text;html=1;align=center;verticalAlign=middle;resizable=0;points=[];autosize=1;strokeColor=none;fillColor=none;" parent="1" vertex="1">
          <mxGeometry x="-905" y="169.75" width="130" height="30" as="geometry" />
        </mxCell>
        <mxCell id="ecpVX0U7AmKR85L5Xxbu-62" style="edgeStyle=orthogonalEdgeStyle;rounded=0;orthogonalLoop=1;jettySize=auto;html=1;exitX=1;exitY=0.5;exitDx=0;exitDy=0;entryX=0;entryY=0.5;entryDx=0;entryDy=0;" parent="1" source="ecpVX0U7AmKR85L5Xxbu-57" target="ecpVX0U7AmKR85L5Xxbu-60" edge="1">
          <mxGeometry relative="1" as="geometry" />
        </mxCell>
        <mxCell id="y7glqsLBrWSuBBTJrkj_-9" value="jmpdest_de_out" style="edgeLabel;html=1;align=center;verticalAlign=middle;resizable=0;points=[];" vertex="1" connectable="0" parent="ecpVX0U7AmKR85L5Xxbu-62">
          <mxGeometry x="-0.6956" relative="1" as="geometry">
            <mxPoint as="offset" />
          </mxGeometry>
        </mxCell>
        <mxCell id="ecpVX0U7AmKR85L5Xxbu-57" value="JMPDEST_DE" style="whiteSpace=wrap;html=1;fillColor=#d5e8d4;strokeColor=#82b366;" parent="1" vertex="1">
          <mxGeometry x="160" y="-375" width="120" height="40" as="geometry" />
        </mxCell>
        <mxCell id="ecpVX0U7AmKR85L5Xxbu-61" style="edgeStyle=orthogonalEdgeStyle;rounded=0;orthogonalLoop=1;jettySize=auto;html=1;exitX=1;exitY=0.5;exitDx=0;exitDy=0;entryX=0.25;entryY=1;entryDx=0;entryDy=0;" parent="1" source="ecpVX0U7AmKR85L5Xxbu-60" target="lmTZzJaFjMnNjgpMNtPa-71" edge="1">
          <mxGeometry relative="1" as="geometry">
            <Array as="points">
              <mxPoint x="1725" y="-356" />
            </Array>
          </mxGeometry>
        </mxCell>
        <mxCell id="y7glqsLBrWSuBBTJrkj_-27" value="jmpdest_em_out" style="edgeLabel;html=1;align=center;verticalAlign=middle;resizable=0;points=[];" vertex="1" connectable="0" parent="ecpVX0U7AmKR85L5Xxbu-61">
          <mxGeometry x="-0.4082" y="1" relative="1" as="geometry">
            <mxPoint as="offset" />
          </mxGeometry>
        </mxCell>
        <mxCell id="ecpVX0U7AmKR85L5Xxbu-60" value="JMPDEST_EM" style="whiteSpace=wrap;html=1;fillColor=#d5e8d4;strokeColor=#82b366;" parent="1" vertex="1">
          <mxGeometry x="1605" y="-375" width="120" height="40" as="geometry" />
        </mxCell>
        <mxCell id="ecpVX0U7AmKR85L5Xxbu-64" style="edgeStyle=orthogonalEdgeStyle;rounded=0;orthogonalLoop=1;jettySize=auto;html=1;exitX=1;exitY=0.5;exitDx=0;exitDy=0;entryX=0.25;entryY=1;entryDx=0;entryDy=0;" parent="1" source="ecpVX0U7AmKR85L5Xxbu-63" target="lmTZzJaFjMnNjgpMNtPa-67" edge="1">
          <mxGeometry relative="1" as="geometry">
            <Array as="points">
              <mxPoint x="2440" y="221" />
              <mxPoint x="2440" y="312" />
            </Array>
          </mxGeometry>
        </mxCell>
        <mxCell id="y7glqsLBrWSuBBTJrkj_-35" value="npc_mw_out" style="edgeLabel;html=1;align=center;verticalAlign=middle;resizable=0;points=[];" vertex="1" connectable="0" parent="ecpVX0U7AmKR85L5Xxbu-64">
          <mxGeometry x="-0.4176" y="3" relative="1" as="geometry">
            <mxPoint as="offset" />
          </mxGeometry>
        </mxCell>
        <mxCell id="ecpVX0U7AmKR85L5Xxbu-63" value="NPC_MW" style="whiteSpace=wrap;html=1;fillColor=#d5e8d4;strokeColor=#82b366;" parent="1" vertex="1">
          <mxGeometry x="2216" y="201" width="120" height="40" as="geometry" />
        </mxCell>
        <mxCell id="lmTZzJaFjMnNjgpMNtPa-121" style="edgeStyle=orthogonalEdgeStyle;rounded=0;jumpStyle=arc;jumpSize=9;orthogonalLoop=1;jettySize=auto;html=1;exitX=1;exitY=0.5;exitDx=0;exitDy=0;entryX=0;entryY=0.5;entryDx=0;entryDy=0;endArrow=classic;endFill=1;" parent="1" source="lmTZzJaFjMnNjgpMNtPa-119" target="ecpVX0U7AmKR85L5Xxbu-63" edge="1">
          <mxGeometry relative="1" as="geometry">
            <Array as="points">
              <mxPoint x="1800" y="221" />
            </Array>
          </mxGeometry>
        </mxCell>
        <mxCell id="y7glqsLBrWSuBBTJrkj_-29" value="npc_em_out" style="edgeLabel;html=1;align=center;verticalAlign=middle;resizable=0;points=[];" vertex="1" connectable="0" parent="lmTZzJaFjMnNjgpMNtPa-121">
          <mxGeometry x="-0.1826" relative="1" as="geometry">
            <mxPoint as="offset" />
          </mxGeometry>
        </mxCell>
        <mxCell id="ecpVX0U7AmKR85L5Xxbu-69" value="DATA" style="edgeStyle=orthogonalEdgeStyle;rounded=0;jumpStyle=arc;jumpSize=9;orthogonalLoop=1;jettySize=auto;html=1;exitX=1;exitY=0.5;exitDx=0;exitDy=0;entryX=0;entryY=0.75;entryDx=0;entryDy=0;" parent="1" source="ecpVX0U7AmKR85L5Xxbu-68" target="lmTZzJaFjMnNjgpMNtPa-61" edge="1">
          <mxGeometry x="0.3714" relative="1" as="geometry">
            <Array as="points">
              <mxPoint x="1840" y="461" />
              <mxPoint x="1840" y="416" />
            </Array>
            <mxPoint as="offset" />
          </mxGeometry>
        </mxCell>
        <mxCell id="y7glqsLBrWSuBBTJrkj_-31" value="b_em_out" style="edgeLabel;html=1;align=center;verticalAlign=middle;resizable=0;points=[];" vertex="1" connectable="0" parent="ecpVX0U7AmKR85L5Xxbu-69">
          <mxGeometry x="-0.5906" y="-2" relative="1" as="geometry">
            <mxPoint as="offset" />
          </mxGeometry>
        </mxCell>
        <mxCell id="ecpVX0U7AmKR85L5Xxbu-68" value="B_EM" style="whiteSpace=wrap;html=1;fillColor=#d5e8d4;strokeColor=#82b366;" parent="1" vertex="1">
          <mxGeometry x="1600" y="441" width="120" height="40" as="geometry" />
        </mxCell>
        <mxCell id="ecpVX0U7AmKR85L5Xxbu-73" style="edgeStyle=orthogonalEdgeStyle;rounded=0;jumpStyle=arc;jumpSize=9;orthogonalLoop=1;jettySize=auto;html=1;exitX=1;exitY=0.5;exitDx=0;exitDy=0;entryX=0.5;entryY=1;entryDx=0;entryDy=0;" parent="1" source="ecpVX0U7AmKR85L5Xxbu-71" target="lmTZzJaFjMnNjgpMNtPa-67" edge="1">
          <mxGeometry relative="1" as="geometry">
            <mxPoint x="2370" y="370" as="targetPoint" />
            <Array as="points">
              <mxPoint x="2336" y="305" />
              <mxPoint x="2410" y="305" />
              <mxPoint x="2410" y="349" />
            </Array>
          </mxGeometry>
        </mxCell>
        <mxCell id="y7glqsLBrWSuBBTJrkj_-36" value="exeout_mw_out" style="edgeLabel;html=1;align=center;verticalAlign=middle;resizable=0;points=[];" vertex="1" connectable="0" parent="ecpVX0U7AmKR85L5Xxbu-73">
          <mxGeometry x="-0.2421" y="4" relative="1" as="geometry">
            <mxPoint y="31" as="offset" />
          </mxGeometry>
        </mxCell>
        <mxCell id="ecpVX0U7AmKR85L5Xxbu-71" value="EXEOUT_MW" style="whiteSpace=wrap;html=1;fillColor=#d5e8d4;strokeColor=#82b366;" parent="1" vertex="1">
          <mxGeometry x="2216" y="280" width="120" height="40" as="geometry" />
        </mxCell>
        <mxCell id="5x8gw_C9wOxPfMnRKNMZ-26" style="edgeStyle=orthogonalEdgeStyle;rounded=0;orthogonalLoop=1;jettySize=auto;html=1;entryX=0.5;entryY=1;entryDx=0;entryDy=0;strokeWidth=1;endArrow=classic;endFill=1;" parent="1" source="ecpVX0U7AmKR85L5Xxbu-74" target="5x8gw_C9wOxPfMnRKNMZ-25" edge="1">
          <mxGeometry relative="1" as="geometry" />
        </mxCell>
        <mxCell id="ecpVX0U7AmKR85L5Xxbu-74" value="DE_ENABLE" style="text;html=1;align=center;verticalAlign=middle;resizable=0;points=[];autosize=1;strokeColor=none;fillColor=none;" parent="1" vertex="1">
          <mxGeometry x="175" y="1146" width="90" height="30" as="geometry" />
        </mxCell>
        <mxCell id="5x8gw_C9wOxPfMnRKNMZ-30" style="edgeStyle=orthogonalEdgeStyle;rounded=0;orthogonalLoop=1;jettySize=auto;html=1;entryX=0.5;entryY=1;entryDx=0;entryDy=0;strokeWidth=1;endArrow=classic;endFill=1;" parent="1" source="ecpVX0U7AmKR85L5Xxbu-80" target="5x8gw_C9wOxPfMnRKNMZ-29" edge="1">
          <mxGeometry relative="1" as="geometry" />
        </mxCell>
        <mxCell id="ecpVX0U7AmKR85L5Xxbu-80" value="MW_ENABLE" style="text;html=1;align=center;verticalAlign=middle;resizable=0;points=[];autosize=1;strokeColor=none;fillColor=none;" parent="1" vertex="1">
          <mxGeometry x="2226" y="1146" width="100" height="30" as="geometry" />
        </mxCell>
        <mxCell id="5x8gw_C9wOxPfMnRKNMZ-28" style="edgeStyle=orthogonalEdgeStyle;rounded=0;orthogonalLoop=1;jettySize=auto;html=1;entryX=0.5;entryY=1;entryDx=0;entryDy=0;strokeWidth=1;endArrow=classic;endFill=1;" parent="1" source="ecpVX0U7AmKR85L5Xxbu-84" target="5x8gw_C9wOxPfMnRKNMZ-27" edge="1">
          <mxGeometry relative="1" as="geometry" />
        </mxCell>
        <mxCell id="ecpVX0U7AmKR85L5Xxbu-84" value="EM_ENABLE" style="text;html=1;align=center;verticalAlign=middle;resizable=0;points=[];autosize=1;strokeColor=none;fillColor=none;" parent="1" vertex="1">
          <mxGeometry x="1605" y="1146" width="100" height="30" as="geometry" />
        </mxCell>
        <mxCell id="ecpVX0U7AmKR85L5Xxbu-89" value="" style="edgeStyle=orthogonalEdgeStyle;rounded=0;jumpStyle=arc;jumpSize=9;orthogonalLoop=1;jettySize=auto;html=1;" parent="1" source="ecpVX0U7AmKR85L5Xxbu-88" target="lmTZzJaFjMnNjgpMNtPa-61" edge="1">
          <mxGeometry relative="1" as="geometry" />
        </mxCell>
        <mxCell id="ecpVX0U7AmKR85L5Xxbu-88" value="MEM_RD_WR_BAR" style="text;html=1;align=center;verticalAlign=middle;resizable=0;points=[];autosize=1;strokeColor=none;fillColor=none;" parent="1" vertex="1">
          <mxGeometry x="1995" y="520" width="130" height="30" as="geometry" />
        </mxCell>
        <mxCell id="ecpVX0U7AmKR85L5Xxbu-90" value="1" style="text;html=1;align=center;verticalAlign=middle;resizable=0;points=[];autosize=1;strokeColor=none;fillColor=none;" parent="1" vertex="1">
          <mxGeometry x="1086.75" y="502.5" width="30" height="30" as="geometry" />
        </mxCell>
        <mxCell id="ecpVX0U7AmKR85L5Xxbu-91" value="0" style="text;html=1;align=center;verticalAlign=middle;resizable=0;points=[];autosize=1;strokeColor=none;fillColor=none;rotation=0;" parent="1" vertex="1">
          <mxGeometry x="1085.75" y="542.5" width="30" height="30" as="geometry" />
        </mxCell>
        <mxCell id="ecpVX0U7AmKR85L5Xxbu-92" value="1" style="text;html=1;align=center;verticalAlign=middle;resizable=0;points=[];autosize=1;strokeColor=none;fillColor=none;" parent="1" vertex="1">
          <mxGeometry x="1085.75" y="661.5" width="30" height="30" as="geometry" />
        </mxCell>
        <mxCell id="ecpVX0U7AmKR85L5Xxbu-93" value="0" style="text;html=1;align=center;verticalAlign=middle;resizable=0;points=[];autosize=1;strokeColor=none;fillColor=none;" parent="1" vertex="1">
          <mxGeometry x="1085.75" y="701.5" width="30" height="30" as="geometry" />
        </mxCell>
        <mxCell id="SToLBTXvnQJ6AA17-jK0-2" style="edgeStyle=orthogonalEdgeStyle;rounded=0;orthogonalLoop=1;jettySize=auto;html=1;exitX=1;exitY=0.5;exitDx=0;exitDy=0;entryX=0;entryY=0.5;entryDx=0;entryDy=0;" parent="1" source="SToLBTXvnQJ6AA17-jK0-1" target="lmTZzJaFjMnNjgpMNtPa-117" edge="1">
          <mxGeometry relative="1" as="geometry" />
        </mxCell>
        <mxCell id="y7glqsLBrWSuBBTJrkj_-7" value="npc_fd_out" style="edgeLabel;html=1;align=center;verticalAlign=middle;resizable=0;points=[];" vertex="1" connectable="0" parent="SToLBTXvnQJ6AA17-jK0-2">
          <mxGeometry x="-0.3716" y="1" relative="1" as="geometry">
            <mxPoint as="offset" />
          </mxGeometry>
        </mxCell>
        <mxCell id="SToLBTXvnQJ6AA17-jK0-1" value="&amp;nbsp; &amp;nbsp; &amp;nbsp; &amp;nbsp; &amp;nbsp; &amp;nbsp; &amp;nbsp;NPC_FD" style="whiteSpace=wrap;html=1;fillColor=#d5e8d4;strokeColor=#82b366;" parent="1" vertex="1">
          <mxGeometry x="-485.5" y="-60" width="120" height="40" as="geometry" />
        </mxCell>
        <mxCell id="SToLBTXvnQJ6AA17-jK0-3" value="single_cycle_enable" style="text;html=1;align=center;verticalAlign=middle;resizable=0;points=[];autosize=1;strokeColor=none;fillColor=none;" parent="1" vertex="1">
          <mxGeometry x="-490.5" y="1146" width="130" height="30" as="geometry" />
        </mxCell>
        <mxCell id="SToLBTXvnQJ6AA17-jK0-4" style="edgeStyle=orthogonalEdgeStyle;rounded=0;jumpStyle=arc;jumpSize=9;orthogonalLoop=1;jettySize=auto;html=1;entryX=0.5;entryY=1;entryDx=0;entryDy=0;" parent="1" target="5x8gw_C9wOxPfMnRKNMZ-24" edge="1">
          <mxGeometry relative="1" as="geometry">
            <mxPoint x="-426" y="1150" as="sourcePoint" />
          </mxGeometry>
        </mxCell>
        <mxCell id="5x8gw_C9wOxPfMnRKNMZ-5" value="" style="endArrow=none;html=1;rounded=0;" parent="1" edge="1">
          <mxGeometry x="1" y="36" width="50" height="50" relative="1" as="geometry">
            <mxPoint x="-444.5" y="-60" as="sourcePoint" />
            <mxPoint x="-444.5" y="-20" as="targetPoint" />
            <mxPoint x="-16" y="30" as="offset" />
          </mxGeometry>
        </mxCell>
        <mxCell id="5x8gw_C9wOxPfMnRKNMZ-6" value="" style="endArrow=none;html=1;rounded=0;" parent="1" edge="1">
          <mxGeometry x="1" y="36" width="50" height="50" relative="1" as="geometry">
            <mxPoint x="-454.5" y="-60" as="sourcePoint" />
            <mxPoint x="-454.5" y="-20" as="targetPoint" />
            <mxPoint x="-16" y="30" as="offset" />
          </mxGeometry>
        </mxCell>
        <mxCell id="5x8gw_C9wOxPfMnRKNMZ-7" value="" style="endArrow=none;html=1;rounded=0;" parent="1" edge="1">
          <mxGeometry x="1" y="36" width="50" height="50" relative="1" as="geometry">
            <mxPoint x="-464.5" y="-60" as="sourcePoint" />
            <mxPoint x="-464.5" y="-20" as="targetPoint" />
            <mxPoint x="-16" y="30" as="offset" />
          </mxGeometry>
        </mxCell>
        <mxCell id="5x8gw_C9wOxPfMnRKNMZ-8" value="" style="endArrow=none;html=1;rounded=0;" parent="1" edge="1">
          <mxGeometry x="1" y="36" width="50" height="50" relative="1" as="geometry">
            <mxPoint x="-474.5" y="-60" as="sourcePoint" />
            <mxPoint x="-474.5" y="-20" as="targetPoint" />
            <mxPoint x="-16" y="30" as="offset" />
          </mxGeometry>
        </mxCell>
        <mxCell id="5x8gw_C9wOxPfMnRKNMZ-10" value="4" style="text;html=1;align=center;verticalAlign=middle;resizable=0;points=[];autosize=1;strokeColor=none;fillColor=none;" parent="1" vertex="1">
          <mxGeometry x="-464" y="-330.68" width="30" height="30" as="geometry" />
        </mxCell>
        <mxCell id="5x8gw_C9wOxPfMnRKNMZ-20" value="1" style="text;html=1;align=center;verticalAlign=middle;resizable=0;points=[];autosize=1;strokeColor=none;fillColor=none;" parent="1" vertex="1">
          <mxGeometry x="1983" y="-150" width="30" height="30" as="geometry" />
        </mxCell>
        <mxCell id="5x8gw_C9wOxPfMnRKNMZ-21" value="" style="endArrow=none;html=1;rounded=0;jumpStyle=none;jumpSize=9;" parent="1" edge="1">
          <mxGeometry width="50" height="50" relative="1" as="geometry">
            <mxPoint x="1972" y="-129" as="sourcePoint" />
            <mxPoint x="1992" y="-149" as="targetPoint" />
          </mxGeometry>
        </mxCell>
        <mxCell id="5x8gw_C9wOxPfMnRKNMZ-22" value="1" style="text;html=1;align=center;verticalAlign=middle;resizable=0;points=[];autosize=1;strokeColor=none;fillColor=none;" parent="1" vertex="1">
          <mxGeometry x="2095" y="-250" width="30" height="30" as="geometry" />
        </mxCell>
        <mxCell id="5x8gw_C9wOxPfMnRKNMZ-23" value="" style="endArrow=none;html=1;rounded=0;jumpStyle=none;jumpSize=9;" parent="1" edge="1">
          <mxGeometry width="50" height="50" relative="1" as="geometry">
            <mxPoint x="2084" y="-229" as="sourcePoint" />
            <mxPoint x="2104" y="-249" as="targetPoint" />
          </mxGeometry>
        </mxCell>
        <mxCell id="5x8gw_C9wOxPfMnRKNMZ-33" value="" style="endArrow=none;html=1;rounded=0;jumpStyle=none;jumpSize=9;" parent="1" edge="1">
          <mxGeometry width="50" height="50" relative="1" as="geometry">
            <mxPoint x="-190" y="-303.39000000000004" as="sourcePoint" />
            <mxPoint x="-170" y="-323.39000000000004" as="targetPoint" />
          </mxGeometry>
        </mxCell>
        <mxCell id="5x8gw_C9wOxPfMnRKNMZ-34" value="26" style="text;html=1;align=center;verticalAlign=middle;resizable=0;points=[];autosize=1;strokeColor=none;fillColor=none;" parent="1" vertex="1">
          <mxGeometry x="-191" y="-314.37" width="40" height="30" as="geometry" />
        </mxCell>
        <mxCell id="5x8gw_C9wOxPfMnRKNMZ-36" value="" style="endArrow=none;html=1;rounded=0;jumpStyle=none;jumpSize=9;" parent="1" edge="1">
          <mxGeometry width="50" height="50" relative="1" as="geometry">
            <mxPoint x="-83" y="-305.39000000000004" as="sourcePoint" />
            <mxPoint x="-63" y="-325.39000000000004" as="targetPoint" />
          </mxGeometry>
        </mxCell>
        <mxCell id="5x8gw_C9wOxPfMnRKNMZ-37" value="28" style="text;html=1;align=center;verticalAlign=middle;resizable=0;points=[];autosize=1;strokeColor=none;fillColor=none;" parent="1" vertex="1">
          <mxGeometry x="-84" y="-316.37" width="40" height="30" as="geometry" />
        </mxCell>
        <mxCell id="5x8gw_C9wOxPfMnRKNMZ-38" value="" style="endArrow=none;html=1;rounded=0;jumpStyle=none;jumpSize=9;" parent="1" edge="1">
          <mxGeometry width="50" height="50" relative="1" as="geometry">
            <mxPoint x="-111" y="90.72999999999996" as="sourcePoint" />
            <mxPoint x="-91" y="70.72999999999996" as="targetPoint" />
          </mxGeometry>
        </mxCell>
        <mxCell id="5x8gw_C9wOxPfMnRKNMZ-39" value="1" style="text;html=1;align=center;verticalAlign=middle;resizable=0;points=[];autosize=1;strokeColor=none;fillColor=none;" parent="1" vertex="1">
          <mxGeometry x="-130" y="66.5" width="30" height="30" as="geometry" />
        </mxCell>
        <mxCell id="5x8gw_C9wOxPfMnRKNMZ-41" value="" style="endArrow=none;html=1;rounded=0;jumpStyle=none;jumpSize=9;" parent="1" edge="1">
          <mxGeometry width="50" height="50" relative="1" as="geometry">
            <mxPoint x="-76" y="54.23000000000002" as="sourcePoint" />
            <mxPoint x="-56" y="34.23000000000002" as="targetPoint" />
          </mxGeometry>
        </mxCell>
        <mxCell id="5x8gw_C9wOxPfMnRKNMZ-42" value="1" style="text;html=1;align=center;verticalAlign=middle;resizable=0;points=[];autosize=1;strokeColor=none;fillColor=none;" parent="1" vertex="1">
          <mxGeometry x="-95" y="30" width="30" height="30" as="geometry" />
        </mxCell>
        <mxCell id="5x8gw_C9wOxPfMnRKNMZ-43" value="" style="endArrow=none;html=1;rounded=0;jumpStyle=none;jumpSize=9;" parent="1" edge="1">
          <mxGeometry width="50" height="50" relative="1" as="geometry">
            <mxPoint x="-31" y="78.98000000000002" as="sourcePoint" />
            <mxPoint x="-11" y="58.98000000000002" as="targetPoint" />
          </mxGeometry>
        </mxCell>
        <mxCell id="5x8gw_C9wOxPfMnRKNMZ-44" value="1" style="text;html=1;align=center;verticalAlign=middle;resizable=0;points=[];autosize=1;strokeColor=none;fillColor=none;" parent="1" vertex="1">
          <mxGeometry x="-50" y="54.75" width="30" height="30" as="geometry" />
        </mxCell>
        <mxCell id="5x8gw_C9wOxPfMnRKNMZ-45" value="" style="endArrow=none;html=1;rounded=0;jumpStyle=none;jumpSize=9;" parent="1" edge="1">
          <mxGeometry width="50" height="50" relative="1" as="geometry">
            <mxPoint x="15" y="52.98000000000002" as="sourcePoint" />
            <mxPoint x="35" y="32.98000000000002" as="targetPoint" />
          </mxGeometry>
        </mxCell>
        <mxCell id="5x8gw_C9wOxPfMnRKNMZ-46" value="1" style="text;html=1;align=center;verticalAlign=middle;resizable=0;points=[];autosize=1;strokeColor=none;fillColor=none;" parent="1" vertex="1">
          <mxGeometry x="-4" y="28.75" width="30" height="30" as="geometry" />
        </mxCell>
        <mxCell id="5x8gw_C9wOxPfMnRKNMZ-47" value="" style="endArrow=none;html=1;rounded=0;jumpStyle=none;jumpSize=9;" parent="1" edge="1">
          <mxGeometry width="50" height="50" relative="1" as="geometry">
            <mxPoint x="-177" y="157.73000000000002" as="sourcePoint" />
            <mxPoint x="-157" y="137.73000000000002" as="targetPoint" />
          </mxGeometry>
        </mxCell>
        <mxCell id="5x8gw_C9wOxPfMnRKNMZ-48" value="1" style="text;html=1;align=center;verticalAlign=middle;resizable=0;points=[];autosize=1;strokeColor=none;fillColor=none;" parent="1" vertex="1">
          <mxGeometry x="-196" y="133.5" width="30" height="30" as="geometry" />
        </mxCell>
        <mxCell id="5x8gw_C9wOxPfMnRKNMZ-49" value="" style="endArrow=none;html=1;rounded=0;jumpStyle=none;jumpSize=9;" parent="1" edge="1">
          <mxGeometry width="50" height="50" relative="1" as="geometry">
            <mxPoint x="-216" y="195.23000000000002" as="sourcePoint" />
            <mxPoint x="-196" y="175.23000000000002" as="targetPoint" />
          </mxGeometry>
        </mxCell>
        <mxCell id="5x8gw_C9wOxPfMnRKNMZ-50" value="5" style="text;html=1;align=center;verticalAlign=middle;resizable=0;points=[];autosize=1;strokeColor=none;fillColor=none;" parent="1" vertex="1">
          <mxGeometry x="-226" y="158" width="30" height="30" as="geometry" />
        </mxCell>
        <mxCell id="5x8gw_C9wOxPfMnRKNMZ-51" value="" style="shape=curlyBracket;whiteSpace=wrap;html=1;rounded=1;flipH=1;labelPosition=right;verticalLabelPosition=middle;align=left;verticalAlign=middle;fillColor=default;rotation=-90;" parent="1" vertex="1">
          <mxGeometry x="-474.5" y="-114.5" width="20" height="43" as="geometry" />
        </mxCell>
        <mxCell id="5x8gw_C9wOxPfMnRKNMZ-52" value="" style="endArrow=none;html=1;rounded=0;jumpStyle=none;jumpSize=9;" parent="1" edge="1">
          <mxGeometry width="50" height="50" relative="1" as="geometry">
            <mxPoint x="-216" y="235.62" as="sourcePoint" />
            <mxPoint x="-196" y="215.62" as="targetPoint" />
          </mxGeometry>
        </mxCell>
        <mxCell id="5x8gw_C9wOxPfMnRKNMZ-53" value="5" style="text;html=1;align=center;verticalAlign=middle;resizable=0;points=[];autosize=1;strokeColor=none;fillColor=none;" parent="1" vertex="1">
          <mxGeometry x="-226" y="198.39" width="30" height="30" as="geometry" />
        </mxCell>
        <mxCell id="5x8gw_C9wOxPfMnRKNMZ-54" value="" style="endArrow=none;html=1;rounded=0;jumpStyle=none;jumpSize=9;" parent="1" edge="1">
          <mxGeometry width="50" height="50" relative="1" as="geometry">
            <mxPoint x="-206" y="289.73" as="sourcePoint" />
            <mxPoint x="-186" y="269.73" as="targetPoint" />
          </mxGeometry>
        </mxCell>
        <mxCell id="5x8gw_C9wOxPfMnRKNMZ-55" value="5" style="text;html=1;align=center;verticalAlign=middle;resizable=0;points=[];autosize=1;strokeColor=none;fillColor=none;" parent="1" vertex="1">
          <mxGeometry x="-216" y="252.5" width="30" height="30" as="geometry" />
        </mxCell>
        <mxCell id="5x8gw_C9wOxPfMnRKNMZ-56" value="" style="endArrow=none;html=1;rounded=0;jumpStyle=none;jumpSize=9;" parent="1" edge="1">
          <mxGeometry width="50" height="50" relative="1" as="geometry">
            <mxPoint x="-209" y="331.37" as="sourcePoint" />
            <mxPoint x="-189" y="311.37" as="targetPoint" />
          </mxGeometry>
        </mxCell>
        <mxCell id="5x8gw_C9wOxPfMnRKNMZ-57" value="5" style="text;html=1;align=center;verticalAlign=middle;resizable=0;points=[];autosize=1;strokeColor=none;fillColor=none;" parent="1" vertex="1">
          <mxGeometry x="-219" y="294.14" width="30" height="30" as="geometry" />
        </mxCell>
        <mxCell id="5x8gw_C9wOxPfMnRKNMZ-58" value="" style="endArrow=none;html=1;rounded=0;jumpStyle=none;jumpSize=9;" parent="1" edge="1">
          <mxGeometry width="50" height="50" relative="1" as="geometry">
            <mxPoint x="820" y="126.98000000000002" as="sourcePoint" />
            <mxPoint x="840" y="106.98000000000002" as="targetPoint" />
          </mxGeometry>
        </mxCell>
        <mxCell id="5x8gw_C9wOxPfMnRKNMZ-59" value="1" style="text;html=1;align=center;verticalAlign=middle;resizable=0;points=[];autosize=1;strokeColor=none;fillColor=none;" parent="1" vertex="1">
          <mxGeometry x="828" y="104.5" width="30" height="30" as="geometry" />
        </mxCell>
        <mxCell id="5x8gw_C9wOxPfMnRKNMZ-61" value="" style="endArrow=none;html=1;rounded=0;jumpStyle=none;jumpSize=9;" parent="1" edge="1">
          <mxGeometry width="50" height="50" relative="1" as="geometry">
            <mxPoint x="821" y="608.9800000000002" as="sourcePoint" />
            <mxPoint x="841" y="588.9800000000002" as="targetPoint" />
          </mxGeometry>
        </mxCell>
        <mxCell id="5x8gw_C9wOxPfMnRKNMZ-62" value="1" style="text;html=1;align=center;verticalAlign=middle;resizable=0;points=[];autosize=1;strokeColor=none;fillColor=none;" parent="1" vertex="1">
          <mxGeometry x="829" y="586.5" width="30" height="30" as="geometry" />
        </mxCell>
        <mxCell id="5x8gw_C9wOxPfMnRKNMZ-63" value="" style="endArrow=none;html=1;rounded=0;jumpStyle=none;jumpSize=9;" parent="1" edge="1">
          <mxGeometry width="50" height="50" relative="1" as="geometry">
            <mxPoint x="860" y="768.9800000000002" as="sourcePoint" />
            <mxPoint x="880" y="748.9800000000002" as="targetPoint" />
          </mxGeometry>
        </mxCell>
        <mxCell id="5x8gw_C9wOxPfMnRKNMZ-64" value="1" style="text;html=1;align=center;verticalAlign=middle;resizable=0;points=[];autosize=1;strokeColor=none;fillColor=none;" parent="1" vertex="1">
          <mxGeometry x="868" y="746.5" width="30" height="30" as="geometry" />
        </mxCell>
        <mxCell id="5x8gw_C9wOxPfMnRKNMZ-65" value="" style="endArrow=none;html=1;rounded=0;jumpStyle=none;jumpSize=9;" parent="1" edge="1">
          <mxGeometry width="50" height="50" relative="1" as="geometry">
            <mxPoint x="781" y="789.4800000000005" as="sourcePoint" />
            <mxPoint x="801" y="769.4800000000005" as="targetPoint" />
          </mxGeometry>
        </mxCell>
        <mxCell id="5x8gw_C9wOxPfMnRKNMZ-66" value="1" style="text;html=1;align=center;verticalAlign=middle;resizable=0;points=[];autosize=1;strokeColor=none;fillColor=none;" parent="1" vertex="1">
          <mxGeometry x="789" y="767" width="30" height="30" as="geometry" />
        </mxCell>
        <mxCell id="5x8gw_C9wOxPfMnRKNMZ-67" value="" style="endArrow=none;html=1;rounded=0;jumpStyle=none;jumpSize=9;" parent="1" edge="1">
          <mxGeometry width="50" height="50" relative="1" as="geometry">
            <mxPoint x="916" y="649.9800000000005" as="sourcePoint" />
            <mxPoint x="936" y="629.9800000000005" as="targetPoint" />
          </mxGeometry>
        </mxCell>
        <mxCell id="5x8gw_C9wOxPfMnRKNMZ-68" value="1" style="text;html=1;align=center;verticalAlign=middle;resizable=0;points=[];autosize=1;strokeColor=none;fillColor=none;" parent="1" vertex="1">
          <mxGeometry x="904" y="612.5" width="30" height="30" as="geometry" />
        </mxCell>
        <mxCell id="5x8gw_C9wOxPfMnRKNMZ-69" value="" style="endArrow=none;html=1;rounded=0;jumpStyle=none;jumpSize=9;" parent="1" edge="1">
          <mxGeometry width="50" height="50" relative="1" as="geometry">
            <mxPoint x="919" y="490.00000000000045" as="sourcePoint" />
            <mxPoint x="939" y="470.00000000000045" as="targetPoint" />
          </mxGeometry>
        </mxCell>
        <mxCell id="5x8gw_C9wOxPfMnRKNMZ-70" value="1" style="text;html=1;align=center;verticalAlign=middle;resizable=0;points=[];autosize=1;strokeColor=none;fillColor=none;" parent="1" vertex="1">
          <mxGeometry x="907" y="452.52" width="30" height="30" as="geometry" />
        </mxCell>
        <mxCell id="5x8gw_C9wOxPfMnRKNMZ-71" value="" style="endArrow=none;html=1;rounded=0;jumpStyle=none;jumpSize=9;" parent="1" edge="1">
          <mxGeometry width="50" height="50" relative="1" as="geometry">
            <mxPoint x="1410" y="534.5000000000005" as="sourcePoint" />
            <mxPoint x="1430" y="514.5000000000005" as="targetPoint" />
          </mxGeometry>
        </mxCell>
        <mxCell id="5x8gw_C9wOxPfMnRKNMZ-72" value="3" style="text;html=1;align=center;verticalAlign=middle;resizable=0;points=[];autosize=1;strokeColor=none;fillColor=none;" parent="1" vertex="1">
          <mxGeometry x="1396" y="503.5" width="30" height="30" as="geometry" />
        </mxCell>
        <mxCell id="5x8gw_C9wOxPfMnRKNMZ-73" value="1" style="text;html=1;align=center;verticalAlign=middle;resizable=0;points=[];autosize=1;strokeColor=none;fillColor=none;" parent="1" vertex="1">
          <mxGeometry x="1973" y="-223" width="30" height="30" as="geometry" />
        </mxCell>
        <mxCell id="5x8gw_C9wOxPfMnRKNMZ-74" value="" style="endArrow=none;html=1;rounded=0;jumpStyle=none;jumpSize=9;" parent="1" edge="1">
          <mxGeometry width="50" height="50" relative="1" as="geometry">
            <mxPoint x="1962" y="-202" as="sourcePoint" />
            <mxPoint x="1982" y="-222" as="targetPoint" />
          </mxGeometry>
        </mxCell>
        <mxCell id="5x8gw_C9wOxPfMnRKNMZ-75" value="" style="endArrow=none;html=1;rounded=0;jumpStyle=none;jumpSize=9;" parent="1" edge="1">
          <mxGeometry width="50" height="50" relative="1" as="geometry">
            <mxPoint x="-30" y="580.73" as="sourcePoint" />
            <mxPoint x="-10" y="560.73" as="targetPoint" />
          </mxGeometry>
        </mxCell>
        <mxCell id="5x8gw_C9wOxPfMnRKNMZ-76" value="1" style="text;html=1;align=center;verticalAlign=middle;resizable=0;points=[];autosize=1;strokeColor=none;fillColor=none;" parent="1" vertex="1">
          <mxGeometry x="-49" y="556.5" width="30" height="30" as="geometry" />
        </mxCell>
        <mxCell id="5x8gw_C9wOxPfMnRKNMZ-77" value="" style="endArrow=none;html=1;rounded=0;jumpStyle=none;jumpSize=9;" parent="1" edge="1">
          <mxGeometry width="50" height="50" relative="1" as="geometry">
            <mxPoint x="-435.5" y="1124.23" as="sourcePoint" />
            <mxPoint x="-415.5" y="1104.23" as="targetPoint" />
          </mxGeometry>
        </mxCell>
        <mxCell id="5x8gw_C9wOxPfMnRKNMZ-78" value="1" style="text;html=1;align=center;verticalAlign=middle;resizable=0;points=[];autosize=1;strokeColor=none;fillColor=none;" parent="1" vertex="1">
          <mxGeometry x="-454.5" y="1100" width="30" height="30" as="geometry" />
        </mxCell>
        <mxCell id="5x8gw_C9wOxPfMnRKNMZ-79" value="" style="endArrow=none;html=1;rounded=0;jumpStyle=none;jumpSize=9;" parent="1" edge="1">
          <mxGeometry width="50" height="50" relative="1" as="geometry">
            <mxPoint x="209.5" y="1124.23" as="sourcePoint" />
            <mxPoint x="229.5" y="1104.23" as="targetPoint" />
          </mxGeometry>
        </mxCell>
        <mxCell id="5x8gw_C9wOxPfMnRKNMZ-80" value="1" style="text;html=1;align=center;verticalAlign=middle;resizable=0;points=[];autosize=1;strokeColor=none;fillColor=none;" parent="1" vertex="1">
          <mxGeometry x="190.5" y="1100" width="30" height="30" as="geometry" />
        </mxCell>
        <mxCell id="5x8gw_C9wOxPfMnRKNMZ-81" value="" style="endArrow=none;html=1;rounded=0;jumpStyle=none;jumpSize=9;" parent="1" edge="1">
          <mxGeometry width="50" height="50" relative="1" as="geometry">
            <mxPoint x="1645" y="1124.23" as="sourcePoint" />
            <mxPoint x="1665" y="1104.23" as="targetPoint" />
          </mxGeometry>
        </mxCell>
        <mxCell id="5x8gw_C9wOxPfMnRKNMZ-82" value="1" style="text;html=1;align=center;verticalAlign=middle;resizable=0;points=[];autosize=1;strokeColor=none;fillColor=none;" parent="1" vertex="1">
          <mxGeometry x="1626" y="1100" width="30" height="30" as="geometry" />
        </mxCell>
        <mxCell id="5x8gw_C9wOxPfMnRKNMZ-83" value="" style="endArrow=none;html=1;rounded=0;jumpStyle=none;jumpSize=9;" parent="1" edge="1">
          <mxGeometry width="50" height="50" relative="1" as="geometry">
            <mxPoint x="2265.9999999999995" y="1124.23" as="sourcePoint" />
            <mxPoint x="2285.9999999999995" y="1104.23" as="targetPoint" />
          </mxGeometry>
        </mxCell>
        <mxCell id="5x8gw_C9wOxPfMnRKNMZ-84" value="1" style="text;html=1;align=center;verticalAlign=middle;resizable=0;points=[];autosize=1;strokeColor=none;fillColor=none;" parent="1" vertex="1">
          <mxGeometry x="2247" y="1100" width="30" height="30" as="geometry" />
        </mxCell>
        <mxCell id="5x8gw_C9wOxPfMnRKNMZ-85" value="&lt;b style=&quot;font-size: 20px;&quot;&gt;F/D&lt;br&gt;REGISTERS&lt;/b&gt;" style="text;html=1;align=center;verticalAlign=middle;resizable=0;points=[];autosize=1;strokeColor=none;fillColor=none;" parent="1" vertex="1">
          <mxGeometry x="-495.5" y="-460" width="140" height="60" as="geometry" />
        </mxCell>
        <mxCell id="5x8gw_C9wOxPfMnRKNMZ-86" value="&lt;b style=&quot;font-size: 20px;&quot;&gt;D/E&lt;br&gt;REGISTERS&lt;/b&gt;" style="text;html=1;align=center;verticalAlign=middle;resizable=0;points=[];autosize=1;strokeColor=none;fillColor=none;" parent="1" vertex="1">
          <mxGeometry x="150" y="-460" width="140" height="60" as="geometry" />
        </mxCell>
        <mxCell id="5x8gw_C9wOxPfMnRKNMZ-87" value="&lt;b style=&quot;font-size: 20px;&quot;&gt;E/M&lt;/b&gt;&lt;span style=&quot;color: rgba(0, 0, 0, 0); font-family: monospace; font-size: 0px; text-align: start;&quot;&gt;%3CmxGraphModel%3E%3Croot%3E%3CmxCell%20id%3D%220%22%2F%3E%3CmxCell%20id%3D%221%22%20parent%3D%220%22%2F%3E%3CmxCell%20id%3D%222%22%20value%3D%22%26lt%3Bb%20style%3D%26quot%3Bfont-size%3A%2020px%3B%26quot%3B%26gt%3BD%2FE%26lt%3Bbr%26gt%3BREGISTERS%26lt%3B%2Fb%26gt%3B%22%20style%3D%22text%3Bhtml%3D1%3Balign%3Dcenter%3BverticalAlign%3Dmiddle%3Bresizable%3D0%3Bpoints%3D%5B%5D%3Bautosize%3D1%3BstrokeColor%3Dnone%3BfillColor%3Dnone%3B%22%20vertex%3D%221%22%20parent%3D%221%22%3E%3CmxGeometry%20x%3D%22150%22%20y%3D%22-440%22%20width%3D%22140%22%20height%3D%2260%22%20as%3D%22geometry%22%2F%3E%3C%2FmxCell%3E%3C%2Froot%3E%3C%2FmxGraphModel%3E&lt;/span&gt;&lt;b style=&quot;font-size: 20px;&quot;&gt;&lt;br&gt;REGISTERS&lt;/b&gt;" style="text;html=1;align=center;verticalAlign=middle;resizable=0;points=[];autosize=1;strokeColor=none;fillColor=none;" parent="1" vertex="1">
          <mxGeometry x="1585" y="-460" width="140" height="60" as="geometry" />
        </mxCell>
        <mxCell id="5x8gw_C9wOxPfMnRKNMZ-88" value="&lt;b style=&quot;font-size: 20px;&quot;&gt;M/W&lt;/b&gt;&lt;span style=&quot;color: rgba(0, 0, 0, 0); font-family: monospace; font-size: 0px; text-align: start;&quot;&gt;%3CmxGraphModel%3E%3Croot%3E%3CmxCell%20id%3D%220%22%2F%3E%3CmxCell%20id%3D%221%22%20parent%3D%220%22%2F%3E%3CmxCell%20id%3D%222%22%20value%3D%22%26lt%3Bb%20style%3D%26quot%3Bfont-size%3A%2020px%3B%26quot%3B%26gt%3BD%2FE%26lt%3Bbr%26gt%3BREGISTERS%26lt%3B%2Fb%26gt%3B%22%20style%3D%22text%3Bhtml%3D1%3Balign%3Dcenter%3BverticalAlign%3Dmiddle%3Bresizable%3D0%3Bpoints%3D%5B%5D%3Bautosize%3D1%3BstrokeColor%3Dnone%3BfillColor%3Dnone%3B%22%20vertex%3D%221%22%20parent%3D%221%22%3E%3CmxGeometry%20x%3D%22150%22%20y%3D%22-440%22%20width%3D%22140%22%20height%3D%2260%22%20as%3D%22geometry%22%2F%3E%3C%2FmxCell%3E%3C%2Froot%3E%3C%2FmxGraphModel%3E&lt;/span&gt;&lt;b style=&quot;font-size: 20px;&quot;&gt;&lt;br&gt;REGISTERS&lt;/b&gt;" style="text;html=1;align=center;verticalAlign=middle;resizable=0;points=[];autosize=1;strokeColor=none;fillColor=none;" parent="1" vertex="1">
          <mxGeometry x="2206" y="-460" width="140" height="60" as="geometry" />
        </mxCell>
        <mxCell id="5x8gw_C9wOxPfMnRKNMZ-89" value="&lt;div style=&quot;text-align: center;&quot;&gt;&lt;span style=&quot;text-align: start; background-color: initial; font-size: 20px;&quot;&gt;&lt;b&gt;CONTROL WORD&lt;/b&gt;&lt;/span&gt;&lt;span style=&quot;color: rgba(0, 0, 0, 0); font-family: monospace; font-size: 0px; text-align: start; background-color: initial;&quot;&gt;3CmxGraphModel%3E%3Croot%3E%3CmxCell%20id%3D%220%22%2F%3E%3CmxCell%20id%3D%221%22%20parent%3D%220%22%2F%3E%3CmxCell%20id%3D%222%22%20value%3D%22%26lt%3Bb%20style%3D%26quot%3Bfont-size%3A%2020px%3B%26quot%3B%26gt%3BD%2FE%26lt%3Bbr%26gt%3BREGISTERS%26lt%3B%2Fb%26gt%3B%22%20style%3D%22text%3Bhtml%3D1%3Balign%3Dcenter%3BverticalAlign%3Dmiddle%3Bresizable%3D0%3Bpoints%3D%5B%5D%3Bautosize%3D1%3BstrokeColor%3Dnone%3BfillColor%3Dnone%3B%22%20vertex%3D%221%22%20parent%3D%221%22%3E%3CmxGeometry%20x%3D%22150%22%20y%3D%22-440%22%20width%3D%22140%22%20height%3D%2260%22%20as%3D%22geometry%22%2F%3E%3C%2FmxCell%3E%3C%2Froot%3E%3C%2FmxGraphModel%3E&lt;/span&gt;&lt;/div&gt;&lt;b style=&quot;font-size: 20px;&quot;&gt;REGISTERS&lt;/b&gt;" style="text;html=1;align=center;verticalAlign=middle;resizable=0;points=[];autosize=1;strokeColor=none;fillColor=none;" parent="1" vertex="1">
          <mxGeometry x="1021" y="-880" width="190" height="60" as="geometry" />
        </mxCell>
      </root>
    </mxGraphModel>
  </diagram>
</mxfile>
